<?xml version="1.0" encoding="UTF-8" standalone="no"?>
<svg
   xmlns:dc="http://purl.org/dc/elements/1.1/"
   xmlns:cc="http://creativecommons.org/ns#"
   xmlns:rdf="http://www.w3.org/1999/02/22-rdf-syntax-ns#"
   xmlns:svg="http://www.w3.org/2000/svg"
   xmlns="http://www.w3.org/2000/svg"
   xmlns:sodipodi="http://sodipodi.sourceforge.net/DTD/sodipodi-0.dtd"
   xmlns:inkscape="http://www.inkscape.org/namespaces/inkscape"
   inkscape:version="1.0 (4035a4fb49, 2020-05-01)"
   sodipodi:docname="ico_HLLCommander.svg"
   viewBox="0 0 170.66667 170.66667"
   height="170.66667"
   width="170.66667"
   id="svg33906"
   version="1.1">
  <metadata
     id="metadata33912">
    <rdf:RDF>
      <cc:Work
         rdf:about="">
        <dc:format>image/svg+xml</dc:format>
        <dc:type
           rdf:resource="http://purl.org/dc/dcmitype/StillImage" />
        <dc:title></dc:title>
      </cc:Work>
    </rdf:RDF>
  </metadata>
  <defs
     id="defs33910" />
  <sodipodi:namedview
     inkscape:current-layer="g33914"
     inkscape:window-maximized="1"
     inkscape:window-y="-8"
     inkscape:window-x="-8"
     inkscape:cy="85.333336"
     inkscape:cx="85.333336"
     inkscape:zoom="4.3066405"
     showgrid="false"
     id="namedview33908"
     inkscape:window-height="987"
     inkscape:window-width="1680"
     inkscape:pageshadow="2"
     inkscape:pageopacity="0"
     guidetolerance="10"
     gridtolerance="10"
     objecttolerance="10"
     borderopacity="1"
     bordercolor="#666666"
     pagecolor="#ffffff" />
  <g
     inkscape:label="Image 1"
     id="layer6"
     inkscape:groupmode="layer" />
  <g
     id="g33914"
     inkscape:label="Image"
     inkscape:groupmode="layer">
    <path
       id="path33937"
       d="m 35.526532,160.24134 c -1.305129,-0.0954 -2.6779,-0.3352 -3.134694,-0.5475 -0.446984,-0.20774 -1.282903,-0.49473 -1.857597,-0.63774 -0.574694,-0.14301 -1.306122,-0.44611 -1.625397,-0.67355 -0.319274,-0.22744 -0.9741,-0.5432 -1.455169,-0.70169 -1.283223,-0.42277 -3.014739,-1.49519 -5.809827,-3.59833 -2.406741,-1.81093 -4.982086,-4.62573 -6.557907,-7.16764 -0.379263,-0.61178 -0.937735,-1.49771 -1.241051,-1.96874 -0.303314,-0.47103 -0.697902,-1.27142 -0.876862,-1.77864 -0.178959,-0.50723 -0.469643,-1.08415 -0.645965,-1.28205 -0.176321,-0.19791 -0.439827,-0.83004 -0.585567,-1.40473 -0.145741,-0.57469 -0.495054,-1.56735 -0.77625,-2.2059 -0.489727,-1.11208 -0.511266,-1.45446 -0.511266,-8.12698 0,-6.67252 0.02154,-7.0149 0.511266,-8.12698 0.281196,-0.63855 0.630509,-1.63121 0.77625,-2.2059 0.14574,-0.57469 0.409246,-1.20682 0.585567,-1.40473 0.176322,-0.1979 0.467006,-0.77482 0.645965,-1.28205 0.17896,-0.50722 0.573548,-1.29991 0.876862,-1.76151 0.303316,-0.46161 0.760462,-1.18574 1.015881,-1.60918 0.820418,-1.3601 0.906405,-1.47872 2.350834,-3.24309 1.46505,-1.78956 4.25841,-4.39921 4.708888,-4.39921 0.14001,0 0.254564,-0.10158 0.254564,-0.22572 0,-0.20251 1.014238,-0.89893 3.831293,-2.63074 0.510839,-0.31404 1.190023,-0.64658 1.509297,-0.73897 0.319274,-0.0924 0.998458,-0.40304 1.509297,-0.69033 0.510839,-0.28729 1.598582,-0.6507 2.417207,-0.80759 0.818624,-0.15688 1.706787,-0.4282 1.973696,-0.60293 1.377308,-0.90166 11.357818,-1.062938 13.604563,-0.21984 0.574693,0.21565 1.671836,0.54343 2.438095,0.72839 0.766258,0.18496 1.915646,0.57969 2.554195,0.87717 0.638549,0.29748 1.526712,0.70922 1.973696,0.91498 0.90262,0.41551 1.175687,0.57474 3.018594,1.76018 2.143827,1.37901 3.256316,2.28925 5.209318,4.26224 1.972424,1.99262 2.340031,2.44371 3.819864,4.68744 1.510737,2.29059 2.051623,3.21936 2.231196,3.83129 0.09369,0.31928 0.365199,0.90272 0.603345,1.29653 0.238144,0.39382 0.585884,1.43871 0.772749,2.322 0.186867,0.88328 0.528679,1.97168 0.75958,2.41866 0.373359,0.72276 0.419822,1.48084 0.419822,6.84989 0,5.68399 -0.02901,6.09832 -0.495888,7.08209 -0.272737,0.57469 -0.614681,1.60958 -0.759875,2.29975 -0.233287,1.10891 -1.279636,3.69485 -1.888098,4.66623 -0.119992,0.19157 -0.442057,0.76305 -0.7157,1.26998 -0.696587,1.29042 -1.240877,2.03781 -3.132133,4.30084 -2.464816,2.94934 -5.011446,5.10773 -7.794595,6.6063 -0.597584,0.32176 -1.152358,0.69156 -1.232831,0.82177 -0.08047,0.13021 -0.603881,0.35196 -1.163129,0.49278 -0.559248,0.14082 -1.196181,0.45423 -1.415403,0.69647 -0.219224,0.24224 -0.537572,0.44043 -0.707445,0.44043 -0.16987,0 -1.241232,0.30977 -2.380807,0.68838 -1.951272,0.64828 -2.340293,0.69448 -6.679192,0.79332 -2.533982,0.0577 -5.652139,0.0285 -6.929236,-0.0648 z"
        />
    <path
       id="path33939"
       d="m 80.302888,70.822949 c -0.787245,-0.110982 -1.727653,-0.353907 -2.089796,-0.539834 -0.362143,-0.185924 -1.28538,-0.465448 -2.051638,-0.621159 -0.766259,-0.155713 -1.863402,-0.532385 -2.438096,-0.837049 -0.574694,-0.304665 -1.410612,-0.709686 -1.857596,-0.90005 -1.376788,-0.58635 -3.081665,-1.653681 -5.33979,-3.342956 -2.026187,-1.515764 -6.460951,-6.433762 -6.906924,-7.659537 -0.07639,-0.209975 -0.382372,-0.677172 -0.679948,-1.038217 -0.297576,-0.361045 -0.607296,-0.935739 -0.688266,-1.277098 -0.08097,-0.341359 -0.281343,-0.777388 -0.445272,-0.968952 -0.483783,-0.565339 -1.667431,-3.743988 -2.35191,-6.315979 -0.588554,-2.211547 -0.636152,-2.723485 -0.632535,-6.803296 0.0037,-4.223519 0.03463,-4.520791 0.723754,-6.965987 0.395913,-1.404807 0.89359,-3.024399 1.105948,-3.599093 0.502823,-1.360768 2.109302,-4.598875 2.649555,-5.340589 0.232554,-0.319275 0.830004,-1.195932 1.327666,-1.948127 0.858553,-1.297665 4.505953,-5.140839 5.69236,-5.997896 0.304189,-0.219746 1.124953,-0.820562 1.82392,-1.335147 0.698967,-0.514586 1.405296,-0.935611 1.56962,-0.935611 0.164324,0 0.476886,-0.208023 0.694582,-0.462273 0.217696,-0.254251 0.919606,-0.636251 1.5598,-0.84889 0.640195,-0.212638 1.303383,-0.526007 1.473752,-0.696376 0.170368,-0.170369 0.90417,-0.475744 1.63067,-0.678611 0.7265,-0.202868 1.675968,-0.529635 2.109929,-0.726151 1.922521,-0.870596 14.378805,-0.870596 16.301327,0 0.43396,0.196516 1.383429,0.523283 2.109928,0.726151 0.726499,0.202867 1.4603,0.508242 1.63067,0.678611 0.170369,0.170369 0.833557,0.483738 1.473752,0.696376 0.640192,0.212639 1.3421,0.594639 1.5598,0.84889 0.2177,0.25425 0.53026,0.462273 0.69458,0.462273 0.16433,0 0.87065,0.421025 1.56962,0.935611 0.69897,0.514585 1.51919,1.115401 1.82273,1.335147 1.92434,1.393149 6.76241,6.879792 6.76241,7.668951 0,0.121114 0.16651,0.358402 0.37002,0.527304 0.41162,0.341611 2.41637,4.418974 2.41637,4.914529 0,0.173331 0.0987,0.414413 0.21932,0.535738 0.12063,0.121324 0.56016,1.474467 0.97675,3.006984 0.72456,2.665505 0.75786,2.972765 0.76753,7.082086 0.009,3.927347 -0.0436,4.504753 -0.61618,6.733787 -0.9475,3.688639 -2.87167,8.297359 -3.77836,9.049843 -0.1955,0.162252 -0.35545,0.408281 -0.35545,0.546733 0,0.523951 -1.94267,2.988589 -4.00828,5.085249 -2.06144,2.092438 -4.86133,4.351118 -6.3246,5.102086 -0.38313,0.196624 -1.166807,0.595072 -1.7415,0.885435 -0.574694,0.290363 -1.462858,0.740702 -1.973697,1.000754 -0.510839,0.26005 -1.660226,0.654443 -2.554195,0.876428 -0.893968,0.221985 -2.095601,0.581732 -2.670295,0.799435 -0.823614,0.312 -2.003794,0.411333 -5.572789,0.469044 -2.49034,0.04027 -5.172001,-0.01758 -5.959246,-0.128567 z"
        />
    <path
       id="path33941"
       d="m 125.15556,160.24019 c -2.11249,-0.16997 -6.10809,-1.33046 -6.84721,-1.98872 -0.19304,-0.17191 -0.79065,-0.42962 -1.32802,-0.57268 -0.53738,-0.14306 -1.0411,-0.36375 -1.11938,-0.49042 -0.0783,-0.12666 -0.63127,-0.49357 -1.22885,-0.81533 -1.5949,-0.85876 -3.11627,-1.96493 -5.08887,-3.70005 -1.20309,-1.05825 -4.47293,-4.84444 -4.47293,-5.17926 0,-0.1223 -0.16489,-0.35919 -0.36641,-0.52645 -0.20153,-0.16725 -0.62042,-0.78086 -0.93087,-1.36358 -0.31046,-0.58271 -0.6579,-1.21621 -0.77211,-1.40778 -0.70073,-1.17538 -1.66554,-3.59523 -1.98403,-4.97619 -0.20413,-0.88512 -0.46056,-1.72104 -0.56984,-1.8576 -0.479311,-0.59898 -0.716933,-3.03102 -0.711655,-7.28376 0.0056,-4.50201 0.164973,-5.98315 0.792115,-7.36091 0.1744,-0.38313 0.43948,-1.32353 0.58907,-2.08979 0.1496,-0.76626 0.44902,-1.65442 0.6654,-1.9737 0.21638,-0.31927 0.53517,-0.99846 0.70843,-1.5093 0.17326,-0.51083 0.4463,-1.08553 0.60676,-1.27709 0.16046,-0.19157 0.47677,-0.71402 0.70292,-1.161 0.74201,-1.46661 2.51266,-3.73215 4.57166,-5.84944 2.0818,-2.14073 2.47742,-2.46828 5.05774,-4.18745 2.00458,-1.33558 2.29704,-1.51102 3.2508,-1.95007 0.44698,-0.20576 1.33514,-0.6175 1.97369,-0.91498 0.63855,-0.29748 1.78794,-0.69221 2.5542,-0.87717 0.76626,-0.18496 1.8634,-0.51274 2.43809,-0.72839 0.75688,-0.284021 2.10099,-0.426705 4.87619,-0.517637 4.28072,-0.14026 7.5207,0.159023 9.08793,0.839467 0.55701,0.24184 1.48296,0.51339 2.05765,0.60345 0.5747,0.0901 1.36983,0.36114 1.76698,0.6024 0.39714,0.24127 1.1308,0.58287 1.63035,0.75912 0.49955,0.17625 1.29134,0.56862 1.75954,0.87194 0.46819,0.30331 1.29538,0.8127 1.8382,1.13198 1.45029,0.85304 4.9008,3.78345 6.05236,5.14008 2.18857,2.57832 3.51307,4.42236 3.77148,5.25085 0.0896,0.28735 0.25289,0.52245 0.36282,0.52245 0.10993,0 0.42433,0.60081 0.69868,1.33515 0.27434,0.73433 0.63784,1.49188 0.80778,1.68344 0.16993,0.19157 0.42822,0.81851 0.57396,1.3932 0.14574,0.57469 0.49505,1.56735 0.77625,2.2059 0.48972,1.11208 0.51126,1.45446 0.51126,8.12698 0,6.67252 -0.0215,7.0149 -0.51126,8.12698 -0.2812,0.63855 -0.63051,1.63121 -0.77625,2.2059 -0.14574,0.57469 -0.40925,1.20682 -0.58557,1.40473 -0.17632,0.1979 -0.48436,0.82484 -0.68452,1.39319 -0.20016,0.56836 -0.62087,1.42521 -0.93491,1.90412 -0.31404,0.47891 -0.85833,1.31473 -1.20953,1.85738 -1.68295,2.60035 -4.16002,5.28708 -6.49283,7.04238 -2.81137,2.1154 -4.53806,3.18266 -5.80982,3.59102 -0.48107,0.15447 -1.03703,0.42202 -1.23545,0.59455 -0.19843,0.17253 -1.46911,0.67675 -2.82372,1.12049 -2.41364,0.79065 -2.55748,0.80893 -7.18571,0.91328 -2.59752,0.0586 -5.66317,0.0308 -6.81256,-0.0617 z"
        />
  </g>
</svg>
