<?xml version="1.0" encoding="UTF-8" standalone="no"?>
<svg
   xmlns:dc="http://purl.org/dc/elements/1.1/"
   xmlns:cc="http://creativecommons.org/ns#"
   xmlns:rdf="http://www.w3.org/1999/02/22-rdf-syntax-ns#"
   xmlns:svg="http://www.w3.org/2000/svg"
   xmlns="http://www.w3.org/2000/svg"
   xmlns:sodipodi="http://sodipodi.sourceforge.net/DTD/sodipodi-0.dtd"
   xmlns:inkscape="http://www.inkscape.org/namespaces/inkscape"
   inkscape:version="1.0 (4035a4fb49, 2020-05-01)"
   sodipodi:docname="ico_HLLAntiTank.svg"
   viewBox="0 0 170.66667 170.66667"
   height="170.66667"
   width="170.66667"
   id="svg33885"
   version="1.1">
  <metadata
     id="metadata33891">
    <rdf:RDF>
      <cc:Work
         rdf:about="">
        <dc:format>image/svg+xml</dc:format>
        <dc:type
           rdf:resource="http://purl.org/dc/dcmitype/StillImage" />
        <dc:title></dc:title>
      </cc:Work>
    </rdf:RDF>
  </metadata>
  <defs
     id="defs33889" />
  <sodipodi:namedview
     inkscape:current-layer="g33893"
     inkscape:window-maximized="1"
     inkscape:window-y="-8"
     inkscape:window-x="-8"
     inkscape:cy="85.333336"
     inkscape:cx="85.333336"
     inkscape:zoom="4.3066405"
     showgrid="false"
     id="namedview33887"
     inkscape:window-height="987"
     inkscape:window-width="1680"
     inkscape:pageshadow="2"
     inkscape:pageopacity="0"
     guidetolerance="10"
     gridtolerance="10"
     objecttolerance="10"
     borderopacity="1"
     bordercolor="#666666"
     pagecolor="#ffffff" />
  <g
     inkscape:label="Image 1"
     id="layer5"
     inkscape:groupmode="layer" />
  <g
     id="g33893"
     inkscape:label="Image"
     inkscape:groupmode="layer">
    <path
       id="path33900"
       d="m 80.102038,160.21572 c -1.33574,-0.0948 -2.625708,-0.31884 -3.025066,-0.52536 -0.382944,-0.19802 -1.289721,-0.51502 -2.01506,-0.70443 -0.72534,-0.18942 -1.59856,-0.56445 -1.94049,-0.83341 -0.341929,-0.26896 -0.800854,-0.48902 -1.019833,-0.48902 -0.218979,0 -0.857949,-0.31157 -1.419933,-0.69238 -0.561985,-0.3808 -1.116054,-0.69427 -1.231266,-0.69659 -0.482528,-0.01 -4.80355,-3.46838 -6.292111,-5.03635 -1.675041,-1.7644 -3.593343,-4.2317 -3.59684,-4.62622 -0.0012,-0.13985 -0.201685,-0.43475 -0.445435,-0.65534 -0.243751,-0.22059 -0.574429,-0.73311 -0.734841,-1.13893 -0.160412,-0.40583 -0.419816,-0.8946 -0.576453,-1.08617 -0.380776,-0.46568 -1.535801,-3.36853 -2.309766,-5.80499 -1.342019,-4.22469 -1.295274,-11.77973 0.100566,-16.25396 0.776747,-2.48979 1.59157,-4.52685 2.15422,-5.38556 0.209118,-0.31916 0.545884,-0.93593 0.74837,-1.37061 0.361926,-0.77695 0.759479,-1.38324 2.269177,-3.46061 0.65314,-0.89874 4.225977,-4.55969 5.641795,-5.78094 0.25542,-0.22032 1.091338,-0.804 1.857597,-1.29708 0.766258,-0.49307 1.656443,-1.07284 1.978187,-1.28838 0.321744,-0.21554 0.844193,-0.47217 1.160998,-0.57028 0.316804,-0.0981 0.993967,-0.41603 1.504806,-0.70648 0.510839,-0.29045 1.294512,-0.60257 1.741496,-0.69358 0.446985,-0.091 1.428978,-0.42257 2.182208,-0.73678 1.099726,-0.458739 2.071735,-0.622194 4.93424,-0.82975 4.862788,-0.352593 10.091443,0.007 12.063705,0.82975 0.753229,0.31421 1.735222,0.64576 2.182206,0.73678 0.446984,0.091 1.230658,0.40313 1.741497,0.69358 0.510839,0.29045 1.188003,0.60837 1.504806,0.70648 0.316804,0.0981 0.839252,0.35474 1.161002,0.57028 0.32174,0.21554 1.21192,0.79531 1.97818,1.28838 1.59047,1.02344 1.69646,1.11201 4.08017,3.40964 2.89682,2.79221 4.76163,5.13308 5.69699,7.15137 0.20716,0.44698 0.56645,1.0799 0.79842,1.40648 0.52499,0.7391 1.20546,2.46794 2.09682,5.32731 1.40895,4.51974 1.45718,12.02038 0.1045,16.25396 -1.83732,5.75044 -3.84725,9.24211 -7.66851,13.32186 -1.41288,1.50844 -5.80427,5.01629 -6.29211,5.02614 -0.11521,0.002 -0.66928,0.31579 -1.231264,0.69659 -0.561985,0.38081 -1.194745,0.69238 -1.406135,0.69238 -0.21139,0 -0.730191,0.25515 -1.152887,0.56701 -0.422699,0.31186 -1.284138,0.67759 -1.914311,0.81274 -0.630174,0.13514 -1.466473,0.41156 -1.858442,0.61426 -1.290496,0.66734 -8.076049,0.94685 -13.551203,0.55821 z"
       />
    <path
       id="path33902"
       d="m 33.939595,91.231509 c -2.164839,-0.647942 -3.736612,-1.986356 -5.249313,-4.469955 -0.761615,-1.250444 -0.732139,-2.929249 0.07642,-4.352795 0.836672,-1.473037 3.170873,-3.783882 6.027809,-5.9675 2.026113,-1.548602 3.962004,-3.096205 4.997329,-3.994998 0.367773,-0.319275 1.156273,-0.946214 1.752222,-1.393198 0.595949,-0.446984 2.115484,-1.648616 3.376745,-2.670295 2.427171,-1.966117 5.177956,-4.14772 6.806397,-5.398042 0.54015,-0.41473 1.19107,-0.948898 1.44649,-1.187039 0.417288,-0.38906 3.74689,-3.07309 5.22449,-4.211518 2.140949,-1.649512 6.232865,-4.944568 6.625853,-5.335534 0.259911,-0.258574 0.551161,-0.470135 0.64722,-0.470135 0.09606,0 0.966723,-0.653061 1.934809,-1.451247 1.569611,-1.294145 4.017422,-3.28855 5.652889,-4.605811 0.319274,-0.257154 1.468662,-1.15733 2.554195,-2.00039 2.149738,-1.669557 3.342824,-2.635561 4.063492,-3.290083 1.20715,-1.096351 2.672473,-1.912819 3.892057,-2.16863 2.488901,-0.522052 4.908984,0.227615 7.021322,2.174988 0.63225,0.582874 3.535174,2.914937 4.868101,3.910788 0.598281,0.446984 1.3673,1.044161 1.708933,1.32706 0.341633,0.282899 1.366406,1.118817 2.277272,1.857596 0.910863,0.738779 2.448193,1.996296 3.416273,2.794482 0.96809,0.798186 1.83875,1.451247 1.93481,1.451247 0.0961,0 0.38731,0.211561 0.64722,0.470135 0.39299,0.390966 4.4849,3.686022 6.62585,5.335534 0.81483,0.627792 4.48141,3.571583 6.19789,4.976116 0.79079,0.64707 1.92437,1.542207 2.51906,1.989191 0.59469,0.446984 1.35829,1.040911 1.6969,1.319838 2.57686,2.122729 5.53415,4.50212 6.44028,5.181749 0.59594,0.446984 1.38445,1.073923 1.75222,1.393198 0.87597,0.760451 1.69261,1.423761 3.06889,2.492685 0.61907,0.480816 1.55948,1.211079 2.0898,1.622808 1.78656,1.387053 2.25892,1.800473 3.76224,3.29281 2.72332,2.703404 3.41761,4.877329 2.19731,6.880001 -1.4661,2.406047 -3.07477,3.826189 -5.0308,4.441209 -1.45427,0.457257 -2.21888,0.431043 -3.85223,-0.132068 -1.43075,-0.493262 -2.45293,-1.174554 -5.28419,-3.521959 -0.78742,-0.652859 -3.46346,-2.683751 -4.17959,-3.171971 -0.49948,-0.340521 -1.58032,-1.198189 -4.17959,-3.316592 -0.31927,-0.260208 -1.25836,-0.966471 -2.08686,-1.56947 -0.82849,-0.603001 -1.68925,-1.253099 -1.91278,-1.444664 -0.46315,-0.396906 -1.23109,-1.015492 -2.73415,-2.202399 -0.57469,-0.453813 -1.4297,-1.136577 -1.90003,-1.517254 -0.47032,-0.380675 -0.92211,-0.692139 -1.00398,-0.692139 -0.0819,0 -0.80719,-0.548571 -1.61181,-1.219047 -1.51014,-1.258369 -2.57281,-2.081734 -4.77216,-3.697527 -0.7024,-0.516034 -1.32934,-1.005993 -1.3932,-1.088798 -0.12579,-0.163129 -1.18485,-0.98598 -3.228963,-2.508775 -0.71441,-0.532215 -1.560153,-1.187997 -1.879427,-1.457296 -0.721235,-0.608339 -2.164284,-1.732963 -3.592193,-2.799532 -0.598415,-0.446984 -1.307701,-1.0478 -1.576186,-1.335147 -0.268488,-0.287347 -0.580834,-0.522449 -0.694101,-0.522449 -0.207184,0 -0.835117,-0.48326 -3.545125,-2.728345 -1.95437,-1.619084 -2.453179,-1.619084 -4.396204,0 -0.804622,0.670476 -1.952201,1.584762 -2.550176,2.031746 -0.597974,0.446984 -1.34199,1.021678 -1.653372,1.277097 -0.311379,0.25542 -1.04816,0.830114 -1.63729,1.277098 -1.524439,1.156618 -2.901689,2.232434 -3.575309,2.792792 -0.319274,0.26559 -1.468662,1.15992 -2.554195,1.9874 -1.085533,0.827481 -2.182676,1.682384 -2.438095,1.899785 -0.25542,0.217404 -0.986848,0.781691 -1.625397,1.253973 -2.19341,1.622283 -3.196013,2.401354 -4.656056,3.617978 -0.804623,0.670476 -1.529938,1.219047 -1.611809,1.219047 -0.08187,0 -0.533666,0.311464 -1.003989,0.692139 -0.470322,0.380677 -1.325335,1.063441 -1.900028,1.517254 -1.503061,1.186907 -2.270996,1.805493 -2.734143,2.202399 -0.223536,0.191565 -1.084291,0.841663 -1.912788,1.444664 -0.828497,0.602999 -1.767582,1.310846 -2.086856,1.572987 -1.161075,0.953312 -3.95428,3.155237 -5.008574,3.948336 -0.594192,0.446984 -1.669526,1.286877 -2.38963,1.866433 -0.720104,0.579554 -1.531045,1.206493 -1.802091,1.393198 -0.271046,0.186702 -1.084312,0.789402 -1.807257,1.339329 -2.234617,1.699824 -4.278665,2.238392 -6.252855,1.647512 z"
       />
    <path
       id="path33904"
       d="m 33.102382,63.42059 c -2.102287,-0.771646 -4.604737,-3.731696 -4.990631,-5.903221 -0.340078,-1.913712 1.530288,-4.57918 5.216878,-7.4346 0.19596,-0.151782 0.944054,-0.772291 1.662431,-1.378913 0.718376,-0.606621 1.378163,-1.102948 1.466193,-1.102948 0.08803,0 0.442867,-0.287346 0.788525,-0.638548 0.345659,-0.351202 0.936153,-0.86578 1.312209,-1.143506 0.376056,-0.27773 1.548447,-1.192015 2.605315,-2.031747 1.056867,-0.839733 2.012219,-1.526788 2.123003,-1.526788 0.110784,0 0.253264,-0.135089 0.316623,-0.300199 0.06336,-0.165111 0.727599,-0.762832 1.47609,-1.32827 0.748491,-0.565439 1.686697,-1.29239 2.084901,-1.615447 0.875562,-0.710329 1.487013,-1.199114 5.080981,-4.061653 1.532517,-1.220625 3.047619,-2.434107 3.366893,-2.696626 3.516386,-2.891301 5.546388,-4.482482 5.979139,-4.686642 0.287346,-0.135563 0.522449,-0.332674 0.522449,-0.438025 0,-0.105351 0.355806,-0.428171 0.790681,-0.717377 0.658548,-0.437957 5.478637,-4.244733 7.568502,-5.9774 1.840026,-1.525528 4.355073,-3.548056 5.925617,-4.76521 0.988736,-0.766259 2.443413,-1.931509 3.232617,-2.589445 0.789202,-0.657937 1.945384,-1.519978 2.569288,-1.915647 1.042031,-0.660835 1.297092,-0.719398 3.13325,-0.719398 1.836157,0 2.091219,0.05856 3.13325,0.719398 0.623904,0.395669 1.780085,1.25771 2.569288,1.915647 0.789204,0.657936 2.243881,1.823186 3.232617,2.589445 1.575973,1.221361 4.13122,3.276438 5.925619,4.765724 0.31927,0.264986 1.83437,1.462903 3.36689,2.662036 3.04022,2.378852 3.79301,2.987782 4.66122,3.770445 0.31544,0.284363 0.76583,0.619942 1.00087,0.745729 0.23504,0.125787 1.51273,1.115867 2.83931,2.200177 1.32659,1.084311 2.6732,2.184409 2.99248,2.444662 0.31927,0.260253 1.83438,1.470004 3.36689,2.688334 1.53252,1.218328 3.06244,2.447142 3.39981,2.730697 0.33739,0.283553 1.16079,0.933512 1.82979,1.444351 0.669,0.510839 2.44907,1.935072 3.95571,3.164963 1.50664,1.229892 3.08651,2.476494 3.51081,2.770227 0.4243,0.293735 0.92819,0.672085 1.11976,0.840783 0.32787,0.288733 2.49048,2.060128 4.53971,3.718476 0.50434,0.408139 1.40225,1.139568 1.99536,1.625397 2.44705,2.004428 4.09206,4.728644 3.80159,6.295633 -0.25403,1.370349 -1.27346,3.006639 -2.67927,4.30048 -1.45593,1.339968 -3.03871,2.013293 -4.73263,2.013293 -1.27853,0 -3.56473,-0.876054 -4.67127,-1.789989 -0.43158,-0.356459 -1.02497,-0.82735 -1.31864,-1.046426 -0.29367,-0.219076 -1.00415,-0.763574 -1.57885,-1.209999 -0.57469,-0.446424 -1.46285,-1.134703 -1.97369,-1.52951 -0.51084,-0.394806 -1.62098,-1.260918 -2.46698,-1.924693 -0.846,-0.663777 -2.08688,-1.624825 -2.75751,-2.135664 -0.67064,-0.510839 -1.88171,-1.451247 -2.69128,-2.089796 -0.80957,-0.638549 -2.37204,-1.840182 -3.47216,-2.670295 -2.24549,-1.694381 -2.82908,-2.158869 -3.86551,-3.076644 -0.39661,-0.351202 -0.78398,-0.640553 -0.86082,-0.643003 -0.0768,-0.0025 -0.55653,-0.368166 -1.06597,-0.812698 -0.50944,-0.444534 -0.99027,-0.808245 -1.06851,-0.808245 -0.0782,0 -0.46052,-0.287347 -0.84951,-0.638549 -0.389,-0.351201 -1.21089,-1.004263 -1.82643,-1.451247 -0.61553,-0.446984 -1.29693,-0.969433 -1.5142,-1.160998 -0.21728,-0.191564 -0.885,-0.714013 -1.48383,-1.160997 -0.99874,-0.745491 -2.084417,-1.592778 -3.592939,-2.804005 -1.138739,-0.914323 -2.038275,-1.603784 -3.274174,-2.509532 -0.689544,-0.505345 -1.514941,-1.138845 -1.834216,-1.407778 -0.727711,-0.61297 -2.177363,-1.742235 -3.59294,-2.798867 -0.598826,-0.446984 -1.270338,-0.969433 -1.492246,-1.160998 -2.118712,-1.828997 -3.036086,-1.828997 -5.154798,0 -0.221908,0.191565 -0.89342,0.714014 -1.492247,1.160998 -1.27575,0.952261 -2.774139,2.11429 -3.592939,2.786395 -1.189751,0.976594 -2.516359,1.994403 -3.480456,2.670294 -0.5465,0.38313 -1.221172,0.905579 -1.499273,1.160998 -0.278101,0.25542 -1.126124,0.934339 -1.884497,1.50871 -0.758373,0.574371 -1.431103,1.102344 -1.494958,1.173274 -0.06385,0.07093 -0.531983,0.436907 -1.040287,0.813284 -1.197762,0.886897 -1.649323,1.242481 -2.564553,2.019472 -0.413689,0.351201 -0.839181,0.638548 -0.94554,0.638548 -0.106357,0 -0.406034,0.213069 -0.665944,0.473485 -0.25991,0.260419 -1.099504,0.94173 -1.865763,1.514025 -0.766258,0.572293 -1.673912,1.27351 -2.01701,1.558259 -0.805888,0.668832 -1.495366,1.208914 -3.904078,3.058154 -2.716772,2.085744 -6.930372,5.343209 -8.787434,6.79342 -0.849995,0.663775 -1.963406,1.529887 -2.474245,1.924693 -0.510839,0.394807 -1.399002,1.083086 -1.973696,1.52951 -0.574694,0.446425 -1.285174,0.990923 -1.578846,1.209999 -0.293671,0.219076 -0.887059,0.689967 -1.318638,1.046426 -1.949076,1.609823 -4.860508,2.167852 -7.073151,1.355702 z"
       />
  </g>
</svg>
