<?xml version="1.0" encoding="UTF-8" standalone="no"?>
<svg
   xmlns:dc="http://purl.org/dc/elements/1.1/"
   xmlns:cc="http://creativecommons.org/ns#"
   xmlns:rdf="http://www.w3.org/1999/02/22-rdf-syntax-ns#"
   xmlns:svg="http://www.w3.org/2000/svg"
   xmlns="http://www.w3.org/2000/svg"
   xmlns:sodipodi="http://sodipodi.sourceforge.net/DTD/sodipodi-0.dtd"
   xmlns:inkscape="http://www.inkscape.org/namespaces/inkscape"
   inkscape:version="1.0 (4035a4fb49, 2020-05-01)"
   sodipodi:docname="ico_HLLSniper.svg"
   viewBox="0 0 170.66667 170.66667"
   height="170.66667"
   width="170.66667"
   id="svg54"
   version="1.1">
  <metadata
     id="metadata60">
    <rdf:RDF>
      <cc:Work
         rdf:about="">
        <dc:format>image/svg+xml</dc:format>
        <dc:type
           rdf:resource="http://purl.org/dc/dcmitype/StillImage" />
        <dc:title></dc:title>
      </cc:Work>
    </rdf:RDF>
  </metadata>
  <defs
     id="defs58" />
  <sodipodi:namedview
     inkscape:current-layer="g62"
     inkscape:window-maximized="1"
     inkscape:window-y="-8"
     inkscape:window-x="-8"
     inkscape:cy="85.333336"
     inkscape:cx="85.333336"
     inkscape:zoom="4.3066405"
     showgrid="false"
     id="namedview56"
     inkscape:window-height="987"
     inkscape:window-width="1680"
     inkscape:pageshadow="2"
     inkscape:pageopacity="0"
     guidetolerance="10"
     gridtolerance="10"
     objecttolerance="10"
     borderopacity="1"
     bordercolor="#666666"
     pagecolor="#ffffff" />
  <g
     inkscape:label="Image 1"
     id="layer3"
     inkscape:groupmode="layer" />
  <g
     id="g62"
     inkscape:label="Image"
     inkscape:groupmode="layer">
    <path
       id="path69"
       d="m 78.903758,156.08752 c -0.758494,-0.48227 -1.481375,-2.00042 -1.607815,-3.37665 -0.252962,-2.75332 -0.30445,-2.82163 -2.477091,-3.2864 -1.049507,-0.22451 -2.080742,-0.49829 -2.291637,-0.60839 -0.210898,-0.11011 -1.375543,-0.35983 -2.588103,-0.55495 -1.212563,-0.19513 -2.659603,-0.55229 -3.215648,-0.7937 -0.556044,-0.24141 -1.481194,-0.51408 -2.055888,-0.60594 -0.574694,-0.0919 -1.410613,-0.34934 -1.857597,-0.57217 -0.446984,-0.22284 -1.230657,-0.53533 -1.741496,-0.69444 -1.672049,-0.52078 -8.332091,-3.69217 -9.520182,-4.53334 -0.383129,-0.27126 -1.028637,-0.62694 -1.434462,-0.79042 -0.405822,-0.16347 -0.918344,-0.49666 -1.138934,-0.74041 -0.220592,-0.24375 -0.501493,-0.44318 -0.624227,-0.44318 -0.122733,0 -0.721355,-0.36571 -1.330268,-0.8127 -0.608914,-0.44698 -1.193933,-0.81269 -1.300042,-0.81269 -0.106108,0 -0.405578,-0.20925 -0.665488,-0.465 -0.25991,-0.25575 -0.898234,-0.80432 -1.418493,-1.21905 -2.394217,-1.90856 -3.053668,-2.46319 -4.347621,-3.65654 -2.560634,-2.36156 -3.291582,-3.12367 -5.567584,-5.80499 -4.202432,-4.95082 -5.762204,-7.11578 -7.19351,-9.98458 -0.286727,-0.5747 -0.636402,-1.11977 -0.777055,-1.21127 -0.140653,-0.0915 -0.4423,-0.6662 -0.670327,-1.2771 -0.228027,-0.6109 -0.554278,-1.27265 -0.725002,-1.47055 -0.170723,-0.19791 -0.472644,-0.81966 -0.670934,-1.38167 -0.198289,-0.56202 -0.50479,-1.18377 -0.681111,-1.38167 -0.176322,-0.19791 -0.445385,-0.82828 -0.597919,-1.40084 -0.152534,-0.57255 -0.519416,-1.51873 -0.815293,-2.10262 -0.295878,-0.58389 -0.612381,-1.4738 -0.703342,-1.97758 -0.09096,-0.50379 -0.250379,-1.0241 -0.354264,-1.15626 -0.33149,-0.42169 -1.565004,-5.008838 -2.08416,-7.750502 -0.48747,-2.574326 -0.997619,-4.104751 -1.65633,-4.968914 -0.249263,-0.327009 -0.758249,-0.448283 -2.281281,-0.543547 -2.059092,-0.128794 -2.831747,-0.395529 -3.597823,-1.242033 -0.438467,-0.484501 -0.463851,-0.840762 -0.463851,-6.510112 v -5.997563 l 0.683399,-0.713317 c 0.759747,-0.793004 1.833738,-1.171531 3.329501,-1.173479 1.504576,-0.0019 2.457133,-0.498247 2.950048,-1.536984 0.233907,-0.492925 0.716881,-2.308229 1.073276,-4.03401 0.7242,-3.506822 1.461943,-6.253863 1.925963,-7.171465 0.169745,-0.335672 0.383611,-1.02827 0.475258,-1.539109 0.09165,-0.510839 0.41117,-1.399002 0.710049,-1.973696 0.29888,-0.574694 0.671016,-1.462857 0.826969,-1.973696 0.155952,-0.510839 0.465535,-1.162993 0.68796,-1.449227 0.222426,-0.286238 0.469755,-0.868745 0.549621,-1.294467 0.07986,-0.425719 0.330202,-0.975198 0.556303,-1.221067 0.226102,-0.245867 0.602109,-0.951085 0.835573,-1.567152 0.233463,-0.616067 0.560189,-1.172199 0.726059,-1.23585 0.165869,-0.06365 0.359221,-0.345387 0.429671,-0.626082 0.128103,-0.510405 0.688659,-1.431724 2.682733,-4.409288 0.584308,-0.872495 1.229726,-1.841656 1.434261,-2.153695 0.204535,-0.312037 0.545444,-0.747567 0.757575,-0.96784 0.212131,-0.220277 0.880702,-1.022159 1.485714,-1.781963 2.441653,-3.066344 6.949094,-7.619429 9.436362,-9.531919 0.498275,-0.383129 1.490928,-1.170184 2.205896,-1.749011 0.714968,-0.578826 1.717901,-1.332435 2.22874,-1.674686 0.510839,-0.342252 1.375209,-0.938751 1.920822,-1.325555 0.545611,-0.386803 1.418163,-0.939317 1.939005,-1.227807 0.52084,-0.288491 1.432797,-0.801353 2.026571,-1.139694 1.009938,-0.575477 3.648786,-1.905979 6.884577,-3.47119 0.766259,-0.370653 1.603008,-0.673875 1.859445,-0.673825 0.256434,4.9e-5 0.951584,-0.258276 1.544775,-0.574056 0.593191,-0.31578 1.532768,-0.643121 2.08795,-0.727424 0.55518,-0.0843 1.595903,-0.395924 2.312719,-0.692492 0.716814,-0.296568 2.075181,-0.64572 3.018594,-0.775893 0.943411,-0.130174 2.289987,-0.418594 2.992391,-0.640934 1.137547,-0.360082 2.482292,-0.405138 12.306576,-0.41233 10.618667,-0.0078 11.094344,0.01059 12.770975,0.493002 0.957823,0.275591 2.307149,0.568803 2.998509,0.651582 0.69135,0.08278 1.84074,0.392926 2.55419,0.689216 0.71345,0.296289 1.7708,0.606889 2.34965,0.690221 0.57885,0.08333 1.3915,0.357693 1.80587,0.60969 0.41438,0.251997 1.23626,0.566385 1.8264,0.698639 0.59015,0.132254 1.34485,0.431819 1.67712,0.665701 0.33228,0.233881 0.86536,0.502394 1.18463,0.596695 0.66815,0.197344 4.24737,1.95599 5.83968,2.869324 0.59378,0.340582 1.50573,0.855277 2.02657,1.143768 0.52085,0.28849 1.3934,0.84085 1.93901,1.227467 0.54561,0.386616 1.40998,0.975876 1.92082,1.309465 0.51084,0.33359 1.24227,0.858831 1.6254,1.167203 0.38313,0.308372 1.01007,0.810079 1.3932,1.114905 4.12141,3.279084 8.14975,7.27061 11.12821,11.0265 0.45573,0.574694 1.00118,1.225124 1.2121,1.445401 0.21092,0.220273 0.55084,0.651124 0.75538,0.957442 0.20453,0.306318 0.85169,1.275481 1.43812,2.153695 0.58644,0.878211 1.35278,2.066954 1.70299,2.641648 0.35021,0.574694 0.9886,1.608205 1.41864,2.296693 0.43005,0.688486 0.8456,1.541798 0.92345,1.896248 0.0778,0.354451 0.28138,0.698113 0.45229,0.763695 0.1709,0.06558 0.43722,0.518393 0.5918,1.006246 0.15459,0.487854 0.46466,1.208982 0.68905,1.602512 0.22439,0.393527 0.53429,1.124955 0.68868,1.625397 0.15439,0.500438 0.52525,1.380094 0.82413,1.954788 0.29888,0.574694 0.6184,1.462857 0.71005,1.973696 0.0916,0.510839 0.30271,1.198029 0.46904,1.527091 0.46663,0.923186 1.48073,4.685039 2.06535,7.661528 0.8396,4.274676 1.46221,5.089787 3.89015,5.092949 1.49576,0.0019 2.56976,0.380475 3.3295,1.173479 l 0.6834,0.713317 v 5.997563 c 0,5.66935 -0.0254,6.025611 -0.46385,6.510112 -0.76608,0.846504 -1.53873,1.113239 -3.59782,1.242033 -1.52303,0.09526 -2.03202,0.216538 -2.28128,0.543547 -0.59503,0.780615 -1.13479,2.269146 -1.4156,3.903915 -0.38027,2.213693 -1.78538,7.620061 -2.18623,8.411821 -0.17932,0.35418 -0.40102,1.06192 -0.49266,1.57276 -0.0916,0.51084 -0.40694,1.399 -0.70064,1.9737 -0.29371,0.57469 -0.66096,1.5151 -0.81611,2.08979 -0.15515,0.5747 -0.41531,1.20163 -0.57813,1.3932 -0.16282,0.19156 -0.42661,0.76626 -0.5862,1.2771 -0.15958,0.51084 -0.47229,1.13777 -0.69491,1.39319 -0.22262,0.25542 -0.591,0.96423 -0.81862,1.57513 -0.22762,0.6109 -0.52893,1.18559 -0.66959,1.2771 -0.14065,0.0915 -0.49032,0.63657 -0.77705,1.21127 -1.43131,2.8688 -2.99108,5.03376 -7.19351,9.98458 -3.00278,3.53752 -5.13032,5.60602 -8.77075,8.52736 -1.14971,0.92261 -2.30304,1.88914 -2.56295,2.14784 -0.25991,0.25871 -0.55938,0.47038 -0.66549,0.47038 -0.1061,0 -0.69112,0.36571 -1.30004,0.81269 -0.60891,0.44699 -1.20753,0.8127 -1.33027,0.8127 -0.12273,0 -0.40363,0.19943 -0.62422,0.44318 -0.22059,0.24375 -0.73312,0.57694 -1.13894,0.74041 -0.40582,0.16348 -1.05133,0.52227 -1.43446,0.79731 -1.13565,0.81528 -7.84136,4.00356 -9.52018,4.52645 -0.51084,0.15911 -1.29451,0.4716 -1.7415,0.69444 -0.44698,0.22283 -1.2829,0.48153 -1.85759,0.57488 -0.5747,0.0934 -1.47056,0.36132 -1.9908,0.59548 -0.52024,0.23415 -1.96728,0.59009 -3.21564,0.79097 -1.248368,0.20088 -2.442305,0.45532 -2.653203,0.56543 -0.210895,0.1101 -1.23962,0.38333 -2.286058,0.60718 -1.253104,0.26806 -1.955452,0.53521 -2.057399,0.78257 -0.08513,0.20657 -0.238465,1.16369 -0.340737,2.12694 -0.193517,1.82267 -0.836817,3.286 -1.63155,3.71133 -0.496768,0.26586 -12.506626,0.30622 -12.919955,0.0434 z m -2.965569,-21.74885 c 0.474748,-0.19836 0.901661,-0.58679 1.03744,-0.94391 0.146585,-0.38555 0.230723,-8.17844 0.230723,-21.36993 V 91.26175 l -0.638549,-0.700235 -0.638549,-0.700237 -20.9594,-0.01382 -20.9594,-0.01381 -0.635158,0.748841 c -0.90511,1.067108 -1.06256,1.846701 -0.613785,3.039083 0.206948,0.549858 0.561491,1.835658 0.787874,2.857336 0.226383,1.021679 0.624981,2.327801 0.885776,2.902495 0.260795,0.574694 0.545604,1.433007 0.632911,1.907367 0.08731,0.47437 0.298818,0.97874 0.470023,1.12082 0.171208,0.14209 0.487171,0.79888 0.702141,1.45952 0.214973,0.66065 0.526699,1.35792 0.692728,1.54948 0.166028,0.19156 0.524711,0.8185 0.797072,1.3932 0.272361,0.57469 0.776157,1.52437 1.119545,2.11039 0.343389,0.58601 0.814071,1.40391 1.045959,1.81753 0.231889,0.41363 0.754338,1.20635 1.160998,1.76162 0.406661,0.55526 1.000606,1.38183 1.31988,1.83682 1.555988,2.21739 8.582484,9.4242 9.188413,9.4242 0.109635,0 0.411992,0.21134 0.671902,0.46964 0.722563,0.71808 2.038447,1.68553 2.986091,2.19541 0.469352,0.25254 0.853368,0.5436 0.853368,0.6468 0,0.10321 0.444082,0.39851 0.986848,0.65623 0.542767,0.25772 1.613787,0.82849 2.380046,1.26838 0.766258,0.43989 1.758911,0.96894 2.205895,1.17566 0.446985,0.20672 1.439638,0.67718 2.205896,1.04545 0.766259,0.36828 1.53985,0.66956 1.719092,0.66951 0.179242,-5e-5 0.858425,0.24993 1.509297,0.55551 0.650872,0.30558 1.810341,0.68299 2.5766,0.83869 0.766259,0.15571 1.584769,0.38423 1.818912,0.50784 0.350758,0.18516 2.810172,0.79862 3.471086,0.8658 0.09988,0.0101 0.544631,-0.13322 0.988325,-0.3186 z M 98.56871,133.9685 c 0.702404,-0.22995 1.95628,-0.5778 2.7864,-0.773 0.83011,-0.19519 1.92322,-0.56893 2.42914,-0.83053 0.50591,-0.26159 1.0806,-0.47558 1.27709,-0.47553 0.51991,1.3e-4 6.00784,-2.62807 7.1058,-3.403 0.39124,-0.27614 1.07043,-0.66918 1.5093,-0.87341 1.19712,-0.55711 3.14812,-1.95585 6.1807,-4.43117 2.17482,-1.77517 7.08999,-6.92966 8.43311,-8.84371 0.31928,-0.45499 0.91322,-1.28156 1.31988,-1.83682 0.40666,-0.55526 0.90541,-1.30501 1.10833,-1.6661 0.20291,-0.3611 0.68092,-1.17899 1.06222,-1.81754 0.38131,-0.63855 0.86105,-1.52671 1.06609,-1.9737 0.20504,-0.44698 0.56571,-1.08427 0.80149,-1.4162 0.23578,-0.33192 0.60044,-1.1156 0.81035,-1.74149 0.20991,-0.6259 0.51277,-1.29473 0.67302,-1.4863 0.16025,-0.19156 0.41606,-0.86041 0.56846,-1.48632 0.1524,-0.62591 0.44594,-1.461831 0.65229,-1.857597 0.20636,-0.395765 0.55549,-1.555491 0.77585,-2.577169 0.22036,-1.021678 0.56998,-2.307478 0.77693,-2.857336 0.4463,-1.185815 0.29134,-1.97204 -0.59449,-3.016149 -0.51272,-0.604339 -0.80437,-0.735761 -1.74149,-0.784746 -0.6191,-0.03236 -10.04143,-0.03648 -20.93851,-0.0091 l -19.812876,0.04969 -0.678736,0.678738 -0.678738,0.678736 v 20.784613 c 0,13.18813 0.08422,21.00612 0.230433,21.39068 0.481897,1.26749 2.158158,1.46491 4.877957,0.57451 z m 37.65926,-60.121737 c 0.29566,-0.12369 0.84079,-0.479868 1.2114,-0.791503 0.54346,-0.45699 0.678,-0.761636 0.69538,-1.574655 0.0118,-0.554422 -0.15321,-1.373755 -0.3668,-1.820739 -0.21358,-0.446984 -0.51382,-1.544127 -0.6672,-2.438095 -0.15337,-0.893969 -0.4635,-1.991699 -0.68916,-2.439401 -0.22566,-0.447704 -0.53209,-1.283622 -0.68095,-1.857596 -0.14886,-0.573976 -0.51574,-1.566042 -0.81529,-2.204591 -0.29955,-0.638549 -0.71247,-1.526712 -0.9176,-1.973696 -0.89146,-1.942549 -2.13467,-4.08922 -3.79185,-6.547449 -0.67048,-0.994574 -1.21905,-1.864969 -1.21905,-1.934213 0,-0.225454 -3.0626,-3.903245 -4.50991,-5.415832 -1.39596,-1.458912 -4.23287,-4.019699 -5.69742,-5.142869 -0.41632,-0.319275 -1.15136,-0.893969 -1.63343,-1.277098 -0.84797,-0.673936 -1.66493,-1.208669 -3.06748,-2.007796 -0.36913,-0.21032 -1.05803,-0.648562 -1.53089,-0.973871 -0.47285,-0.32531 -1.12096,-0.701552 -1.44023,-0.836094 -0.31928,-0.134542 -0.73724,-0.347646 -0.9288,-0.473564 -0.33952,-0.22317 -2.89567,-1.386675 -4.76009,-2.166693 -1.95617,-0.818403 -5.17897,-1.827203 -6.84989,-2.144154 -0.957823,-0.181686 -2.472925,-0.567055 -3.366893,-0.856374 -1.564041,-0.506177 -1.936563,-0.526035 -9.868481,-0.526035 -7.931918,0 -8.304441,0.01986 -9.868481,0.526035 -0.893968,0.289319 -2.409071,0.674688 -3.366894,0.856374 -2.542034,0.48219 -5.702461,1.584994 -9.467224,3.303508 -0.928698,0.423925 -1.790739,0.770773 -1.915646,0.770773 -0.124909,0 -0.227107,0.08862 -0.227107,0.196934 0,0.108314 -0.444082,0.389144 -0.986848,0.624066 -0.542767,0.234922 -1.143583,0.555574 -1.335148,0.71256 -0.191565,0.156986 -0.774244,0.529218 -1.294844,0.827182 -1.750653,1.00198 -2.469624,1.467012 -3.350563,2.167149 -0.482068,0.383129 -1.21432,0.957823 -1.627229,1.277098 -2.751969,2.127911 -6.183697,5.481516 -8.091595,7.907386 -0.647417,0.823182 -1.389703,1.709351 -1.649527,1.969261 -0.259827,0.25991 -0.47241,0.548028 -0.47241,0.64026 0,0.09223 -0.551068,0.97672 -1.224595,1.96553 -0.673527,0.98881 -1.35488,2.05906 -1.514118,2.378334 -0.159235,0.319274 -0.648863,1.207438 -1.088059,1.973696 -0.439196,0.766259 -0.92104,1.654422 -1.070765,1.973696 -1.214979,2.590832 -1.579463,3.473745 -1.725419,4.179592 -0.09243,0.446985 -0.402836,1.282903 -0.689798,1.857597 -0.286959,0.574694 -0.647356,1.776326 -0.800877,2.670295 -0.153523,0.893968 -0.445728,1.976598 -0.649342,2.405845 -0.203615,0.429246 -0.37021,1.247353 -0.37021,1.818016 0,0.861158 0.115147,1.134494 0.677248,1.607656 0.372488,0.313549 0.886229,0.664328 1.141649,0.77951 0.650214,0.293217 101.162006,0.306996 101.862436,0.01396 z"
       />
  </g>
</svg>
