<?xml version="1.0" encoding="UTF-8" standalone="no"?>
<svg
   xmlns:dc="http://purl.org/dc/elements/1.1/"
   xmlns:cc="http://creativecommons.org/ns#"
   xmlns:rdf="http://www.w3.org/1999/02/22-rdf-syntax-ns#"
   xmlns:svg="http://www.w3.org/2000/svg"
   xmlns="http://www.w3.org/2000/svg"
   xmlns:sodipodi="http://sodipodi.sourceforge.net/DTD/sodipodi-0.dtd"
   xmlns:inkscape="http://www.inkscape.org/namespaces/inkscape"
   inkscape:version="1.0 (4035a4fb49, 2020-05-01)"
   sodipodi:docname="ico_HLLEngineer.svg"
   viewBox="0 0 170.66667 170.66667"
   height="170.66667"
   width="170.66667"
   id="svg33960"
   version="1.1">
  <metadata
     id="metadata33966">
    <rdf:RDF>
      <cc:Work
         rdf:about="">
        <dc:format>image/svg+xml</dc:format>
        <dc:type
           rdf:resource="http://purl.org/dc/dcmitype/StillImage" />
        <dc:title></dc:title>
      </cc:Work>
    </rdf:RDF>
  </metadata>
  <defs
     id="defs33964" />
  <sodipodi:namedview
     inkscape:current-layer="g33968"
     inkscape:window-maximized="1"
     inkscape:window-y="-8"
     inkscape:window-x="-8"
     inkscape:cy="85.333336"
     inkscape:cx="85.333336"
     inkscape:zoom="4.3066405"
     showgrid="false"
     id="namedview33962"
     inkscape:window-height="987"
     inkscape:window-width="1680"
     inkscape:pageshadow="2"
     inkscape:pageopacity="0"
     guidetolerance="10"
     gridtolerance="10"
     objecttolerance="10"
     borderopacity="1"
     bordercolor="#666666"
     pagecolor="#ffffff" />
  <g
     inkscape:label="Image 1"
     id="layer8"
     inkscape:groupmode="layer" />
  <g
     id="g33968"
     inkscape:label="Image"
     inkscape:groupmode="layer">
    <path
       id="path33975"
       d="m 14.860771,141.3076 c -0.792672,-0.35953 -2.681408,-2.3044 -3.715192,-3.82561 L 10.44898,136.45694 V 84.985037 33.51313 l 0.669938,-0.966721 c 0.845578,-1.22017 1.515257,-1.889849 2.735427,-2.735427 l 0.966721,-0.669938 h 70.51227 70.512274 l 0.96672,0.669938 c 1.22017,0.845578 1.88985,1.515257 2.73542,2.735427 l 0.66994,0.966721 V 85.090564 136.668 l -0.5805,0.75247 c -1.36755,1.7727 -3.18889,3.60271 -3.88188,3.90034 -1.00585,0.43201 -5.16318,0.43178 -6.16821,-4.6e-4 -1.23524,-0.53112 -3.68979,-3.36107 -4.55488,-5.25153 -0.33631,-0.73493 -0.37721,-5.0663 -0.42742,-45.263569 l -0.0555,-44.450758 -0.62647,-0.65389 -0.62646,-0.65389 H 119.2997 c -20.429502,0 -24.116371,0.05002 -24.80191,0.336451 -0.442881,0.185048 -0.829951,0.367906 -0.860153,0.406349 -0.03021,0.03845 -0.108572,14.959695 -0.17415,33.158335 l -0.119237,33.088432 -0.741482,1.3932 c -1.329879,2.49876 -3.098801,3.91742 -5.504089,4.41425 -1.662091,0.34331 -1.927809,0.34163 -3.579878,-0.0227 -2.407907,-0.53104 -4.144149,-1.92884 -5.454837,-4.39154 l -0.741483,-1.3932 -0.119237,-33.088432 c -0.06558,-18.19864 -0.143945,-33.11989 -0.174149,-33.158335 -0.0302,-0.03844 -0.417272,-0.221301 -0.860153,-0.406349 -0.685539,-0.286436 -4.372408,-0.336451 -24.80191,-0.336451 h -23.99667 l -0.626466,0.65389 -0.626466,0.65389 -0.05552,44.450874 c -0.05021,40.197273 -0.09111,44.528643 -0.427423,45.263573 -0.463338,1.01252 -1.431974,2.4463 -2.122456,3.14168 -0.288332,0.29037 -0.873683,0.89283 -1.30078,1.33879 -0.427097,0.44595 -1.093219,0.87416 -1.480272,0.95157 -1.307389,0.26148 -5.146127,0.13502 -5.870173,-0.19338 z"
        />
    <path
       id="path33983"
       d="m 14.860771,141.3076 c -0.792672,-0.35953 -2.681408,-2.3044 -3.715192,-3.82561 L 10.44898,136.45694 V 84.985037 33.51313 l 0.669938,-0.966721 c 0.845578,-1.22017 1.515257,-1.889849 2.735427,-2.735427 l 0.966721,-0.669938 h 70.51227 70.512274 l 0.96672,0.669938 c 1.22017,0.845578 1.88985,1.515257 2.73542,2.735427 l 0.66994,0.966721 V 85.090564 136.668 l -0.5805,0.75247 c -1.36755,1.7727 -3.18889,3.60271 -3.88188,3.90034 -1.00585,0.43201 -5.16318,0.43178 -6.16821,-4.6e-4 -1.23524,-0.53112 -3.68979,-3.36107 -4.55488,-5.25153 -0.33631,-0.73493 -0.37721,-5.0663 -0.42742,-45.263569 l -0.0555,-44.450758 -0.62647,-0.65389 -0.62646,-0.65389 H 119.2997 c -20.429502,0 -24.116371,0.05002 -24.80191,0.336451 -0.442881,0.185048 -0.829951,0.367906 -0.860153,0.406349 -0.03021,0.03845 -0.108572,14.959695 -0.17415,33.158335 l -0.119237,33.088432 -0.741482,1.3932 c -1.329879,2.49876 -3.098801,3.91742 -5.504089,4.41425 -1.662091,0.34331 -1.927809,0.34163 -3.579878,-0.0227 -2.407907,-0.53104 -4.144149,-1.92884 -5.454837,-4.39154 l -0.741483,-1.3932 -0.119237,-33.088432 c -0.06558,-18.19864 -0.143945,-33.11989 -0.174149,-33.158335 -0.0302,-0.03844 -0.417272,-0.221301 -0.860153,-0.406349 -0.685539,-0.286436 -4.372408,-0.336451 -24.80191,-0.336451 h -23.99667 l -0.626466,0.65389 -0.626466,0.65389 -0.05552,44.450874 c -0.05021,40.197273 -0.09111,44.528643 -0.427423,45.263573 -0.463338,1.01252 -1.431974,2.4463 -2.122456,3.14168 -0.288332,0.29037 -0.873683,0.89283 -1.30078,1.33879 -0.427097,0.44595 -1.093219,0.87416 -1.480272,0.95157 -1.307389,0.26148 -5.146127,0.13502 -5.870173,-0.19338 z"
        />
  </g>
</svg>
