<?xml version="1.0" encoding="UTF-8" standalone="no"?>
<svg
   xmlns:dc="http://purl.org/dc/elements/1.1/"
   xmlns:cc="http://creativecommons.org/ns#"
   xmlns:rdf="http://www.w3.org/1999/02/22-rdf-syntax-ns#"
   xmlns:svg="http://www.w3.org/2000/svg"
   xmlns="http://www.w3.org/2000/svg"
   xmlns:sodipodi="http://sodipodi.sourceforge.net/DTD/sodipodi-0.dtd"
   xmlns:inkscape="http://www.inkscape.org/namespaces/inkscape"
   inkscape:version="1.0 (4035a4fb49, 2020-05-01)"
   sodipodi:docname="ico_HLLAssault.svg"
   viewBox="0 0 170.66667 170.66667"
   height="170.66667"
   width="170.66667"
   id="svg33836"
   version="1.1">
  <metadata
     id="metadata33842">
    <rdf:RDF>
      <cc:Work
         rdf:about="">
        <dc:format>image/svg+xml</dc:format>
        <dc:type
           rdf:resource="http://purl.org/dc/dcmitype/StillImage" />
        <dc:title></dc:title>
      </cc:Work>
    </rdf:RDF>
  </metadata>
  <defs
     id="defs33840" />
  <sodipodi:namedview
     inkscape:current-layer="g33844"
     inkscape:window-maximized="1"
     inkscape:window-y="-8"
     inkscape:window-x="-8"
     inkscape:cy="75.597518"
     inkscape:cx="77.655768"
     inkscape:zoom="3.0452547"
     showgrid="false"
     id="namedview33838"
     inkscape:window-height="987"
     inkscape:window-width="1680"
     inkscape:pageshadow="2"
     inkscape:pageopacity="0"
     guidetolerance="10"
     gridtolerance="10"
     objecttolerance="10"
     borderopacity="1"
     bordercolor="#666666"
     pagecolor="#ffffff" />
  <g
     inkscape:label="Image 1"
     id="layer3"
     inkscape:groupmode="layer" />
  <g
     id="g33844"
     inkscape:label="Image"
     inkscape:groupmode="layer">
    <path
       d=""
       id="path33851"
       style="fill:#000000;stroke-width:1.33333" />
    <path
       id="path33857"
       d="m 84.384469,160.25311 c -1.437183,-0.22191 -1.781087,-0.46102 -3.940508,-2.73983 -0.590888,-0.62355 -1.605718,-3.83432 -1.60383,-5.07427 0.0016,-1.13255 0.962495,-3.94231 1.578581,-4.61653 0.247202,-0.27052 0.517842,-0.7178 0.601424,-0.99393 0.08358,-0.27615 0.461307,-0.89133 0.839385,-1.36708 0.378082,-0.47575 0.68742,-1.00649 0.68742,-1.17941 0,-0.17292 0.20898,-0.44491 0.464399,-0.60442 0.25542,-0.15951 0.464399,-0.4099 0.464399,-0.55641 0,-0.14652 0.339592,-0.7787 0.754649,-1.40485 1.080127,-1.62948 1.29983,-1.96895 1.748149,-2.7011 0.219833,-0.35901 0.608676,-0.97975 0.864096,-1.3794 1.134915,-1.77582 1.421112,-2.23029 1.857596,-2.94977 0.25542,-0.42102 0.699502,-1.05476 0.986849,-1.4083 0.287346,-0.35354 0.522448,-0.75032 0.522448,-0.88172 0,-0.1314 0.246945,-0.53428 0.548767,-0.89528 0.301822,-0.361 0.774151,-1.10044 1.049619,-1.64321 0.275467,-0.54277 0.596174,-0.98685 0.712683,-0.98685 0.116506,0 0.285162,-0.2351 0.374786,-0.52245 0.08962,-0.28734 0.448865,-0.94041 0.798316,-1.45124 0.349449,-0.51084 1.061361,-1.60799 1.582029,-2.4381 0.520668,-0.83011 1.046995,-1.62518 1.169615,-1.76682 0.12262,-0.14164 0.445101,-0.66409 0.716621,-1.161 0.447534,-0.81903 0.852551,-1.46137 2.198584,-3.48685 0.243944,-0.36707 0.704154,-1.08537 1.022694,-1.59621 0.31853,-0.51084 0.77172,-1.19003 1.00709,-1.5093 0.23536,-0.31928 0.69282,-1.0507 1.01656,-1.6254 0.61083,-1.08433 1.04912,-1.76767 3.03172,-4.72674 0.54374,-0.81155 1.22038,-1.88205 1.83758,-2.90722 0.70423,-1.16972 1.69111,-2.73294 3.02317,-4.78871 0.66201,-1.021682 1.63559,-2.536784 2.16351,-3.366898 0.52792,-0.830113 1.10453,-1.666031 1.28136,-1.857596 0.17682,-0.191565 0.48923,-0.677705 0.69423,-1.080308 0.33726,-0.662354 0.33813,-0.745289 0.009,-0.871534 -0.19998,-0.07674 -17.259428,-0.165293 -37.909891,-0.196789 L 38.991415,93.46032 37.68895,92.67093 c -1.338381,-0.811157 -2.821713,-2.532549 -3.256123,-3.778699 -0.360223,-1.033335 -0.0923,-3.602261 0.452554,-4.33923 0.249206,-0.337074 0.637144,-0.968769 0.862085,-1.403762 0.224941,-0.434996 0.502836,-0.9052 0.617545,-1.044898 0.247684,-0.301643 2.200704,-3.354188 3.575561,-5.588553 0.233705,-0.379809 0.513135,-0.797768 0.620955,-0.928799 0.37576,-0.456645 1.347935,-1.997893 1.728811,-2.740788 0.21099,-0.411532 0.604019,-1.022419 0.873398,-1.357527 0.269379,-0.335105 0.697659,-0.962044 0.951734,-1.393197 0.254074,-0.43115 0.672033,-1.103763 0.928798,-1.494696 0.704977,-1.07335 1.34407,-2.078625 1.860042,-2.925796 0.662563,-1.087857 1.324219,-2.131947 1.836732,-2.89835 0.243945,-0.36479 0.668369,-1.028969 0.943166,-1.475953 1.268295,-2.063009 4.746577,-7.43793 5.259231,-8.126984 0.237538,-0.319275 0.578921,-0.907336 0.758628,-1.306801 0.179707,-0.399467 0.443385,-0.798392 0.585951,-0.886503 0.142565,-0.08811 0.480733,-0.597194 0.751482,-1.131295 0.270752,-0.5341 0.568148,-1.023338 0.660882,-1.087193 0.09274,-0.06386 0.354624,-0.481814 0.581975,-0.928798 0.227354,-0.446984 0.659893,-1.108063 0.961197,-1.469064 0.301307,-0.360998 0.547831,-0.792286 0.547831,-0.958415 0,-0.16613 0.164885,-0.438894 0.366413,-0.606148 0.201526,-0.167253 0.616295,-0.797215 0.921707,-1.399915 0.305412,-0.602701 0.641886,-1.131712 0.74772,-1.175584 0.105834,-0.04387 0.698124,-0.940963 1.316197,-1.993542 0.618076,-1.05258 1.266103,-2.031904 1.440063,-2.176279 0.173959,-0.144373 0.31629,-0.363232 0.31629,-0.486356 0,-0.123122 0.297968,-0.658899 0.66215,-1.190615 1.470787,-2.147391 2.722196,-4.125701 3.502477,-5.536945 0.260001,-0.470247 0.580204,-0.921418 0.711564,-1.002602 0.13136,-0.08119 0.460359,-0.584601 0.731108,-1.118703 0.270752,-0.534101 0.561621,-1.023338 0.646381,-1.087193 0.138948,-0.104681 0.563822,-0.773332 1.989404,-3.130846 0.25542,-0.422392 0.960726,-1.49827 1.567347,-2.39084 0.606622,-0.89257 1.102948,-1.72662 1.102948,-1.853445 0,-0.126825 0.164885,-0.367434 0.366413,-0.534687 0.201526,-0.167252 0.621246,-0.806985 0.932709,-1.421629 0.311463,-0.614643 0.661987,-1.117533 0.778939,-1.117533 0.116952,0 0.283936,-0.235102 0.371076,-0.522449 0.08714,-0.287347 0.343181,-0.731429 0.568984,-0.986848 0.225802,-0.25542 0.581629,-0.802905 0.790725,-1.216634 0.490287,-0.970108 3.031741,-3.505474 3.823549,-3.81439 0.335879,-0.13104 1.761108,-0.243837 3.167174,-0.250659 2.971639,-0.01442 3.443628,0.158331 5.181877,1.896579 1.802674,1.802676 2.246219,2.929615 2.246219,5.707099 0,2.496548 -0.422863,4.10312 -1.285443,4.883743 -0.250829,0.226998 -0.456054,0.538896 -0.456054,0.693106 0,0.154211 -0.287346,0.650482 -0.638548,1.102825 -0.351202,0.452343 -0.818413,1.119772 -1.038246,1.483176 -1.017802,1.682512 -2.296709,3.715627 -3.775058,6.001323 -0.743406,1.149388 -1.612584,2.507755 -1.931513,3.018594 -0.318926,0.510839 -0.877935,1.375936 -1.242242,1.922436 -0.364307,0.5465 -0.662375,1.075367 -0.662375,1.175262 0,0.0999 -0.197871,0.394017 -0.439714,0.653605 -0.24184,0.259587 -0.620156,0.827861 -0.840699,1.262831 -0.220541,0.43497 -0.567723,0.980797 -0.771516,1.212945 -0.39153,0.446009 -1.086984,1.552737 -1.893011,3.012488 -0.267366,0.48421 -0.690764,1.085026 -0.940884,1.335147 -0.250121,0.250121 -0.454765,0.561774 -0.454765,0.692563 0,0.223469 -0.947488,1.730518 -2.141707,3.406539 -0.290723,0.408014 -0.842058,1.275554 -1.225187,1.927863 -0.383129,0.652311 -1.323537,2.157472 -2.089796,3.344802 -0.766258,1.187331 -1.654422,2.603207 -1.973696,3.146394 -0.319274,0.543187 -0.841723,1.316442 -1.160998,1.718344 -0.319274,0.401903 -0.77981,1.122569 -1.023412,1.601481 -0.243603,0.478911 -0.522846,0.870748 -0.620542,0.870748 -0.0977,0 -0.298216,0.365389 -0.445605,0.811978 -0.147386,0.446588 -0.453969,0.942914 -0.681294,1.102948 -0.227326,0.160032 -0.487773,0.526636 -0.578774,0.814672 -0.091,0.288035 -0.416522,0.822075 -0.723381,1.186756 -0.306858,0.364681 -0.668019,0.912688 -0.802581,1.217796 -0.13456,0.305106 -0.477091,0.886283 -0.761178,1.291501 -0.284087,0.405219 -0.82999,1.27739 -1.21312,1.938158 -0.383129,0.660768 -0.917,1.478612 -1.186379,1.817433 -0.269377,0.338821 -0.665208,0.929506 -0.879621,1.312636 -0.214411,0.383129 -0.695844,1.114558 -1.069852,1.625397 -0.804507,1.098838 -0.825621,1.204486 -0.275612,1.379051 0.230906,0.07329 17.236621,0.158695 37.790477,0.189798 l 37.370647,0.05655 1.31176,0.763613 c 1.97512,1.149778 3.37304,2.755322 3.5757,4.106791 0.28766,1.918221 -0.008,3.492455 -0.90997,4.851958 -0.44772,0.67451 -0.97723,1.361829 -1.17671,1.527378 -0.19948,0.165552 -0.36268,0.395216 -0.36268,0.510366 0,0.21027 -1.22286,2.132741 -2.04614,3.216765 -0.24248,0.319274 -0.62891,0.946213 -0.85874,1.393197 -0.22983,0.446984 -0.59521,1.073923 -0.81196,1.393197 -0.21676,0.319275 -0.96566,1.468663 -1.66422,2.554195 -0.69857,1.085533 -1.47157,2.272677 -1.71778,2.638096 -0.60728,0.90132 -1.84514,2.89585 -2.32573,3.74739 -0.21623,0.38313 -0.63968,0.99196 -0.94098,1.35296 -0.30131,0.361 -0.54783,0.79229 -0.54783,0.95842 0,0.16613 -0.16437,0.43847 -0.36527,0.6052 -0.2009,0.16673 -0.55642,0.67585 -0.79005,1.13138 -0.23362,0.45553 -0.64395,1.07932 -0.91183,1.38621 -0.26787,0.30689 -0.48705,0.68436 -0.48705,0.83882 0,0.15446 -0.28734,0.65395 -0.63855,1.10998 -0.3512,0.45603 -0.95201,1.36553 -1.33514,2.02111 -0.38313,0.65558 -0.95783,1.54073 -1.2771,1.967 -0.5875,0.78437 -1.19496,1.73381 -1.8917,2.95666 -0.21032,0.36913 -0.63766,1.05803 -0.94966,1.53089 -1.22017,1.84929 -1.47039,2.23339 -1.91873,2.94543 -0.25542,0.40564 -0.67338,1.08201 -0.9288,1.50303 -0.25542,0.42102 -0.6852,1.03967 -0.95508,1.37478 -0.26987,0.33511 -0.56152,0.83577 -0.64811,1.11259 -0.0866,0.27681 -0.38824,0.79278 -0.67033,1.14658 -0.55425,0.69517 -1.25898,1.80167 -2.00245,3.14403 -0.25786,0.46559 -0.60411,0.98804 -0.76944,1.161 -0.16533,0.17296 -0.43223,0.5757 -0.59311,0.89497 -0.16088,0.31928 -0.52537,0.90857 -0.80999,1.30954 -0.28461,0.40096 -0.7001,1.0279 -0.92331,1.39319 -0.22321,0.36529 -0.98248,1.55233 -1.68727,2.63786 -1.86271,2.86901 -2.0388,3.1441 -2.55089,3.98488 -0.66256,1.08786 -1.32422,2.13195 -1.83673,2.89835 -0.24394,0.36479 -0.670179,1.02897 -0.947186,1.47596 -1.452539,2.34383 -2.463665,3.87021 -2.781602,4.19907 -0.195561,0.20228 -0.355568,0.4626 -0.355568,0.57849 0,0.11589 -0.349606,0.73406 -0.776902,1.37372 -0.427298,0.63965 -1.281888,1.94553 -1.899088,2.90194 -1.21377,1.88086 -3.093943,3.85984 -3.991241,4.20099 -0.773346,0.29402 -4.135915,0.44816 -5.427214,0.24878 z"
       />
  </g>
</svg>
