<?xml version="1.0" encoding="UTF-8" standalone="no"?>
<svg
   xmlns:dc="http://purl.org/dc/elements/1.1/"
   xmlns:cc="http://creativecommons.org/ns#"
   xmlns:rdf="http://www.w3.org/1999/02/22-rdf-syntax-ns#"
   xmlns:svg="http://www.w3.org/2000/svg"
   xmlns="http://www.w3.org/2000/svg"
   xmlns:sodipodi="http://sodipodi.sourceforge.net/DTD/sodipodi-0.dtd"
   xmlns:inkscape="http://www.inkscape.org/namespaces/inkscape"
   inkscape:version="1.0 (4035a4fb49, 2020-05-01)"
   sodipodi:docname="ico_HLLSupport.svg"
   viewBox="0 0 170.66667 170.66667"
   height="170.66667"
   width="170.66667"
   id="svg92"
   version="1.1">
  <metadata
     id="metadata98">
    <rdf:RDF>
      <cc:Work
         rdf:about="">
        <dc:format>image/svg+xml</dc:format>
        <dc:type
           rdf:resource="http://purl.org/dc/dcmitype/StillImage" />
        <dc:title></dc:title>
      </cc:Work>
    </rdf:RDF>
  </metadata>
  <defs
     id="defs96" />
  <sodipodi:namedview
     inkscape:current-layer="g100"
     inkscape:window-maximized="1"
     inkscape:window-y="-8"
     inkscape:window-x="-8"
     inkscape:cy="85.333336"
     inkscape:cx="85.333336"
     inkscape:zoom="4.3066405"
     showgrid="false"
     id="namedview94"
     inkscape:window-height="987"
     inkscape:window-width="1680"
     inkscape:pageshadow="2"
     inkscape:pageopacity="0"
     guidetolerance="10"
     gridtolerance="10"
     objecttolerance="10"
     borderopacity="1"
     bordercolor="#666666"
     pagecolor="#ffffff" />
  <g
     inkscape:label="Image 1"
     id="layer5"
     inkscape:groupmode="layer" />
  <g
     id="g100"
     inkscape:label="Image"
     inkscape:groupmode="layer">
    <path
       id="path107"
       d="m 11.582264,85.354329 c -0.398372,-0.242918 -0.842454,-0.780569 -0.986848,-1.194778 -0.556348,-1.59594 -0.189303,-9.929742 0.523728,-11.891332 0.196516,-0.540625 0.4614,-1.892948 0.588632,-3.005163 0.127232,-1.112215 0.430893,-2.418338 0.674802,-2.902495 0.24391,-0.484157 0.517718,-1.402736 0.608464,-2.041285 0.09075,-0.638548 0.413303,-1.735691 0.716793,-2.438095 0.303491,-0.702404 0.669439,-1.747302 0.81322,-2.321996 0.14378,-0.574693 0.393608,-1.253877 0.555174,-1.509297 0.161566,-0.255419 0.479954,-1.039093 0.70753,-1.741496 0.227576,-0.702404 0.557085,-1.442059 0.732242,-1.643681 0.175157,-0.201621 0.318467,-0.474383 0.318467,-0.60614 0,-0.354599 3.007205,-6.149234 3.471796,-6.689862 0.219496,-0.25542 0.579008,-0.830114 0.798917,-1.277098 0.219908,-0.446984 0.652308,-1.178412 0.96089,-1.625397 1.423012,-2.061251 3.053325,-4.28739 3.47588,-4.7462 0.255419,-0.277335 0.73917,-0.916364 1.075002,-1.420065 1.6481,-2.47192 10.200074,-10.958315 12.029807,-11.937558 0.257732,-0.137934 0.718105,-0.48345 1.02305,-0.767814 0.48493,-0.4522 1.898563,-1.495836 4.796404,-3.54102 0.446985,-0.315464 1.252452,-0.785869 1.789929,-1.045345 0.537477,-0.259476 1.037726,-0.569658 1.111665,-0.689294 0.07394,-0.119635 1.097043,-0.698689 2.273563,-1.286786 1.176521,-0.588097 2.295864,-1.158438 2.487429,-1.267425 1.06003,-0.603083 3.794431,-1.859038 4.0474,-1.859038 0.162373,0 0.786119,-0.261011 1.386102,-0.580025 0.599983,-0.319014 1.582075,-0.70015 2.182429,-0.84697 0.600352,-0.146819 1.481099,-0.461457 1.957211,-0.699195 0.476111,-0.237737 1.60344,-0.587447 2.505173,-0.777132 0.901733,-0.189686 1.949155,-0.505004 2.327605,-0.700708 0.378448,-0.195704 1.758877,-0.504017 3.067616,-0.68514 1.30874,-0.181123 2.901975,-0.497131 3.540523,-0.702239 0.820726,-0.263625 2.48806,-0.41259 5.688889,-0.508263 7.250898,-0.216729 7.016878,-0.488654 6.918878,8.039554 -0.06461,5.622459 -0.09847,6.036541 -0.53339,6.522053 -0.874691,0.976454 -2.378371,1.408406 -6.501246,1.867569 -3.900295,0.434375 -8.742511,1.396926 -9.868822,1.961756 -0.319275,0.160112 -1.163764,0.411293 -1.876644,0.558179 -0.712878,0.146886 -1.653287,0.456911 -2.089796,0.688944 -0.436507,0.232033 -1.21161,0.549513 -1.722449,0.705512 -0.926054,0.282795 -3.426172,1.390558 -4.527892,2.006237 -0.319274,0.178421 -0.893968,0.473481 -1.277097,0.655688 -0.38313,0.182207 -1.375783,0.761686 -2.205896,1.287732 -0.830113,0.526046 -1.806626,1.136371 -2.17003,1.356278 -0.363404,0.219906 -1.042588,0.68268 -1.509297,1.028386 -0.46671,0.345705 -1.245161,0.920399 -1.729892,1.277097 -3.915873,2.881571 -7.488419,6.332769 -10.148151,9.803454 -0.319275,0.416622 -0.799147,0.99713 -1.066384,1.290019 -0.267233,0.29289 -0.685193,0.845337 -0.928798,1.227658 -0.243603,0.382323 -0.922633,1.412804 -1.508956,2.289957 -1.467714,2.195732 -1.987769,3.061999 -2.510321,4.181489 -0.246781,0.528697 -0.553843,1.026254 -0.682357,1.10568 -0.128515,0.07943 -0.411811,0.691753 -0.629548,1.360727 -0.217738,0.668974 -0.529377,1.373052 -0.692533,1.564616 -0.354918,0.416717 -1.40377,3.304379 -2.783191,7.662586 -0.963518,3.044182 -1.512031,5.809117 -1.96721,9.916277 -0.518923,4.682329 -1.097037,6.339688 -2.365647,6.781929 -0.445573,0.155327 -2.920316,0.252027 -6.436213,0.251493 -5.204733,-6.97e-4 -5.776647,-0.04011 -6.436602,-0.442538 z"
       />
    <path
       id="path109"
       d="m 81.153744,115.8335 c -1.012671,-0.1944 -5.859163,-1.5074 -6.246177,-1.6922 -0.204331,-0.0976 -1.166339,-0.55887 -2.137796,-1.02511 -0.971457,-0.46624 -1.872949,-0.84771 -2.003315,-0.84771 -0.130365,0 -0.373871,-0.16488 -0.541124,-0.36641 -0.167253,-0.20153 -0.806986,-0.62124 -1.421629,-0.93271 -0.614643,-0.31146 -1.117533,-0.66198 -1.117533,-0.77894 0,-0.11695 -0.234255,-0.28699 -0.520567,-0.37786 -0.558441,-0.17724 -5.596199,-5.11638 -6.343543,-6.21936 -2.7067,-3.994736 -4.253645,-7.320272 -5.361601,-11.526077 -0.590564,-2.241782 -0.642281,-2.783982 -0.642297,-6.733787 -1.7e-5,-4.140566 0.02743,-4.394474 0.759916,-7.031126 0.867042,-3.120973 1.103453,-3.748068 2.382739,-6.320348 1.175424,-2.363443 2.253579,-4.127506 2.667959,-4.36528 0.177984,-0.102128 0.323607,-0.342352 0.323607,-0.533831 0,-0.454309 5.676059,-6.130368 6.130368,-6.130368 0.191479,0 0.442142,-0.167967 0.557029,-0.373259 0.37412,-0.668514 5.595546,-3.412596 8.057274,-4.23444 3.974915,-1.327021 5.367228,-1.546125 9.752382,-1.534705 4.452633,0.01159 5.623065,0.207953 9.81399,1.646444 2.114084,0.725636 7.283384,3.382004 7.684974,3.949107 0.0815,0.115104 0.40943,0.375238 0.7287,0.578074 0.9236,0.586767 2.29428,1.815381 3.98043,3.567872 1.74801,1.816781 2.46885,2.756363 3.3068,4.310277 0.31423,0.582716 0.73621,1.196326 0.93774,1.363579 0.20153,0.167253 0.36641,0.422745 0.36641,0.567761 0,0.145016 0.2788,0.785283 0.61955,1.422816 0.83344,1.559349 1.36476,2.994072 2.23506,6.03534 0.70581,2.466443 0.73115,2.70976 0.7377,7.082087 0.006,4.245618 -0.0337,4.676227 -0.64194,6.907326 -0.79651,2.921507 -1.66901,5.274638 -2.26727,6.114806 -0.24799,0.348276 -0.4509,0.781565 -0.4509,0.962864 0,0.181297 -0.36571,0.844018 -0.81269,1.472708 -0.44699,0.62869 -0.8127,1.23356 -0.8127,1.34415 0,0.20416 -0.17736,0.43655 -2.46612,3.23145 -1.40386,1.71431 -5.74083,5.50865 -6.29645,5.50865 -0.12294,0 -0.63105,0.29485 -1.12912,0.65522 -1.44172,1.04314 -5.320509,2.71238 -8.219878,3.53743 -2.510633,0.71443 -2.920202,0.76336 -6.849887,0.81843 -2.298776,0.0322 -4.440817,0.008 -4.760091,-0.0529 z"
       />
    <path
       id="path111"
       d="m 111.29574,32.294498 c -0.59886,-0.17146 -1.43478,-0.523612 -1.85759,-0.78256 -0.42282,-0.258948 -1.23896,-0.593368 -1.81366,-0.743156 -0.57469,-0.149788 -1.2723,-0.417938 -1.55024,-0.595888 -1.05722,-0.676878 -8.127526,-2.529103 -11.830598,-3.099289 -3.521796,-0.542274 -4.775886,-1.180667 -5.474186,-2.786626 -0.382761,-0.880279 -0.437541,-1.351491 -0.313001,-2.692421 0.08303,-0.893968 0.282763,-3.328252 0.443857,-5.40952 l 0.292899,-3.784125 0.976796,-0.975966 0.976796,-0.975967 2.724101,0.05634 c 1.543007,0.03191 3.328151,0.214645 4.117298,0.421461 0.766258,0.200819 2.327638,0.517462 3.469738,0.703652 1.1421,0.186189 2.39597,0.500618 2.78639,0.698731 0.39042,0.198113 1.48952,0.511652 2.44245,0.696754 0.95292,0.185101 1.98795,0.503869 2.30006,0.708372 0.31211,0.204504 1.20047,0.519491 1.97412,0.699972 0.77365,0.180481 1.5672,0.463683 1.76343,0.629337 0.19623,0.165655 0.7225,0.431365 1.16948,0.590467 1.1127,0.396061 2.81681,1.157118 4.5066,2.012652 1.04218,0.52765 1.60441,1.00257 2.13602,1.804333 0.79,1.191435 0.80433,1.686667 0.095,3.284508 -0.22677,0.510839 -0.47614,1.085533 -0.55417,1.277098 -0.078,0.191564 -0.55994,1.027483 -1.07092,1.857596 -0.51098,0.830114 -1.18792,2.031746 -1.50432,2.670295 -0.75247,1.518624 -1.72419,2.869186 -2.44724,3.401366 -0.77451,0.570055 -2.42095,0.715722 -3.75914,0.332587 z"
       />
    <path
       id="path113"
       d="m 135.90569,53.935937 c -0.59033,-0.410884 -1.25654,-1.063945 -1.48045,-1.451247 -0.22391,-0.387305 -0.6771,-1.038606 -1.0071,-1.44734 -0.33,-0.408731 -0.77805,-0.983425 -0.99567,-1.277097 -2.54707,-3.437188 -6.133,-7.144953 -10.03894,-10.380003 -2.05784,-1.704382 -2.61408,-2.2992 -2.9311,-3.134364 -0.36708,-0.967029 -0.36699,-1.102538 0.002,-2.191068 0.21604,-0.638159 0.67299,-1.527647 1.01546,-1.976641 0.34246,-0.448993 0.62266,-0.909599 0.62266,-1.023568 0,-0.113969 0.26122,-0.452625 0.5805,-0.752567 0.31927,-0.299943 0.58151,-0.657749 0.58275,-0.795124 0.001,-0.137376 0.36299,-0.703551 0.80389,-1.258168 0.4409,-0.554616 0.86488,-1.207678 0.94219,-1.451247 0.0773,-0.24357 0.23467,-0.442854 0.34969,-0.442854 0.11503,0 0.34309,-0.252863 0.5068,-0.561918 0.52225,-0.985868 2.01217,-1.992734 2.94184,-1.988051 1.21387,0.0061 4.3003,2.156243 7.66016,5.336364 0.7421,0.702404 1.80966,1.707578 2.37236,2.233722 2.27334,2.125666 7.87297,8.455053 7.87297,8.899001 0,0.09748 0.2351,0.446392 0.52245,0.775352 1.72992,1.980456 2.96054,4.230972 2.96054,5.414155 0,1.061663 -1.12807,2.723393 -2.27613,3.35289 -0.47221,0.258921 -1.32877,0.777321 -1.90346,1.152 -0.57469,0.374677 -1.5151,0.951758 -2.08979,1.282399 -0.5747,0.33064 -1.56735,0.908868 -2.2059,1.284953 -2.43079,1.431652 -3.22997,1.498219 -4.80724,0.400421 z"
       />
    <path
       id="path115"
       d="m 146.01872,85.356094 c -0.86971,-0.537538 -1.58178,-2.233693 -1.81467,-4.322532 -0.67894,-6.089592 -1.44448,-10.174568 -2.33912,-12.481738 -0.18679,-0.481713 -0.44763,-1.357826 -0.57965,-1.946918 -0.13202,-0.589092 -0.5052,-1.631594 -0.8293,-2.316671 -0.71391,-1.50909 -0.94939,-3.420215 -0.56494,-4.58509 0.33496,-1.014953 1.39319,-1.739763 5.34978,-3.664215 5.86509,-2.852728 6.35682,-2.981534 7.71023,-2.019626 0.91088,0.647392 1.79239,1.607943 1.80261,1.964255 0.004,0.140616 0.26835,0.74656 0.58737,1.346543 0.31901,0.599982 0.70015,1.582076 0.84697,2.182429 0.14682,0.600354 0.46145,1.481099 0.69919,1.957211 0.23774,0.476112 0.58197,1.573255 0.76496,2.438095 0.18298,0.864841 0.4931,1.891872 0.68913,2.282292 0.19604,0.39042 0.50912,1.644297 0.69573,2.786394 0.18661,1.142097 0.51215,2.651234 0.72343,3.353638 0.30396,1.010496 0.39178,2.402576 0.4207,6.668465 l 0.0366,5.391369 -0.64344,0.645819 -0.64344,0.645821 -6.09035,0.06326 c -5.6921,0.05912 -6.13817,0.03369 -6.82174,-0.388797 z"
      />
    <path
       id="path117"
       d="m 151.16191,111.75795 c -0.51084,-0.2695 -1.43563,-0.62391 -2.0551,-0.78758 -0.61946,-0.16366 -1.29864,-0.4477 -1.50929,-0.63119 -0.21065,-0.18349 -0.93036,-0.46153 -1.59936,-0.61787 -0.66899,-0.15634 -1.45267,-0.46402 -1.7415,-0.68375 -0.28882,-0.21972 -0.83861,-0.52521 -1.22174,-0.67887 -0.38312,-0.15365 -0.9317,-0.62327 -1.21904,-1.0436 -0.6902,-1.00961 -0.7133,-3.13668 -0.0527,-4.85455 0.25834,-0.67184 0.63216,-1.95296 0.83071,-2.846932 0.78564,-3.537411 1.70775,-5.01621 3.41444,-5.475773 1.06878,-0.287792 3.65466,-0.01577 8.17221,0.859669 3.821,0.740458 4.49232,1.136031 5.00135,2.947035 0.29499,1.049508 -0.25321,5.329711 -0.82399,6.433481 -0.19176,0.37082 -0.49839,1.38607 -0.68141,2.2561 -0.97589,4.63921 -3.56829,6.67819 -6.51454,5.12383 z"
        />
    <path
       id="path119"
       d="m 137.22994,136.31406 c -1.21412,-0.55285 -7.71334,-6.88189 -8.15678,-7.94319 -0.37153,-0.88921 -0.40859,-1.90325 -0.0993,-2.71679 0.21552,-0.56686 1.55519,-2.43874 2.30248,-3.21718 0.20943,-0.21816 0.69426,-0.82184 1.07739,-1.34151 2.07209,-2.81055 2.94743,-3.71334 3.86782,-3.98909 1.15042,-0.34468 2.65227,-0.005 3.78069,0.85608 0.41498,0.31652 0.85906,0.57549 0.98685,0.57549 0.12779,0 0.42147,0.20898 0.65262,0.4644 0.23115,0.25542 0.53656,0.4644 0.67868,0.4644 0.14213,0 0.67451,0.2852 1.18306,0.63378 0.50856,0.34858 1.2014,0.79266 1.53965,0.98685 1.16764,0.67034 2.40511,1.57162 2.868,2.08882 0.36788,0.41106 0.46439,0.84666 0.46439,2.09604 0,1.43191 -0.0695,1.66361 -0.75464,2.5162 -0.41506,0.51648 -0.75465,1.03688 -0.75465,1.15644 0,0.11957 -0.17059,0.35896 -0.37908,0.532 -0.2085,0.17303 -0.60033,0.64261 -0.87075,1.04351 -1.80859,2.68126 -4.38379,5.52278 -5.33182,5.88322 -0.87767,0.33369 -2.2111,0.29464 -3.05463,-0.0895 z"
        />
    <path
       id="path121"
       d="m 114.39633,153.45309 c -0.42605,-0.21717 -0.93911,-0.6648 -1.14013,-0.99472 -0.20102,-0.32992 -0.60015,-0.96558 -0.88695,-1.41256 -0.28681,-0.44698 -0.59653,-1.17841 -0.68829,-1.6254 -0.0918,-0.44698 -0.3483,-1.07392 -0.57011,-1.39319 -0.22182,-0.31928 -0.53021,-0.99846 -0.68531,-1.5093 -0.15511,-0.51084 -0.52272,-1.399 -0.81692,-1.9737 -0.70051,-1.36842 -0.89872,-2.57215 -0.60384,-3.66724 0.35674,-1.32485 0.86663,-1.71795 5.0052,-3.85878 0.63855,-0.33032 1.6312,-0.91382 2.2059,-1.29667 1.746,-1.16316 2.55765,-1.45409 3.69803,-1.32556 0.89821,0.10124 1.19774,0.28857 2.17398,1.35959 1.56938,1.72176 1.64969,1.82055 2.33115,2.86757 0.33249,0.51084 0.91285,1.34676 1.2897,1.8576 2.34781,3.18258 2.58151,3.62725 2.58151,4.91181 0,1.09876 -0.0957,1.3461 -0.83971,2.16961 -0.46185,0.5112 -0.95818,0.93127 -1.10295,0.93348 -0.14478,0.002 -0.5093,0.26343 -0.81005,0.58049 -0.30075,0.31707 -0.66834,0.57649 -0.81685,0.57649 -0.14851,0 -0.68612,0.28378 -1.19468,0.63061 -0.98398,0.67107 -4.10164,2.39352 -5.45254,3.01242 -1.21387,0.55612 -2.76473,0.62253 -3.67714,0.15745 z"
       />
    <path
       id="path123"
       d="m 86.11832,159.89039 c -1.130395,-0.68929 -1.249383,-1.3919 -1.249383,-7.37739 0,-6.42429 0.08696,-6.79642 1.761353,-7.53708 0.594241,-0.26287 1.77328,-0.56992 2.620087,-0.68235 6.20028,-0.82319 7.144335,-0.90508 7.904268,-0.68566 1.716498,0.4956 2.668317,1.96452 3.265275,5.03922 0.24375,1.25542 0.65837,3.10909 0.92138,4.11927 0.96926,3.72274 0.51793,5.28331 -1.874079,6.47992 -1.57558,0.7882 -3.979442,1.07227 -9.141595,1.08031 -3.02063,0.005 -3.579145,-0.0532 -4.207306,-0.43624 z"
       />
    <path
       id="path125"
       d="m 63.597067,157.54047 c -0.423901,-0.13015 -1.071294,-0.6698 -1.567347,-1.30651 -0.693832,-0.89056 -0.845138,-1.27701 -0.845138,-2.15857 0,-0.59799 0.196252,-1.45873 0.442903,-1.94252 0.243596,-0.4778 0.568656,-1.41418 0.722355,-2.08084 0.153699,-0.66666 0.465251,-1.53804 0.692339,-1.93638 0.227087,-0.39835 0.533224,-1.28539 0.680305,-1.97121 0.147081,-0.68581 0.602754,-1.73542 1.012605,-2.33245 1.517912,-2.21117 3.731025,-2.46576 5.3977,-0.62095 l 0.856954,0.94854 -0.0987,2.11797 c -0.06966,1.49471 -0.244704,2.44321 -0.594852,3.22322 -0.272883,0.60789 -0.608567,1.9135 -0.745965,2.90135 -0.27921,2.00745 -1.221422,4.08222 -2.178489,4.79708 -0.684691,0.51141 -2.667528,0.70118 -3.774668,0.36127 z"
       />
    <path
       id="path127"
       d="m 35.642631,141.87376 c -1.668738,-1.24852 -2.247664,-3.07305 -1.524366,-4.80414 0.500448,-1.19774 6.970744,-7.65697 8.305574,-8.29136 l 1.092317,-0.51914 0.997479,0.44585 c 2.649428,1.18424 3.271181,3.46013 1.550793,5.67659 -1.470201,1.89414 -4.621204,5.6415 -5.674819,6.74883 -1.732603,1.82095 -3.034281,2.02479 -4.746978,0.74337 z"
       />
  </g>
</svg>
