<?xml version="1.0" encoding="UTF-8" standalone="no"?>
<svg
   xmlns:dc="http://purl.org/dc/elements/1.1/"
   xmlns:cc="http://creativecommons.org/ns#"
   xmlns:rdf="http://www.w3.org/1999/02/22-rdf-syntax-ns#"
   xmlns:svg="http://www.w3.org/2000/svg"
   xmlns="http://www.w3.org/2000/svg"
   xmlns:sodipodi="http://sodipodi.sourceforge.net/DTD/sodipodi-0.dtd"
   xmlns:inkscape="http://www.inkscape.org/namespaces/inkscape"
   inkscape:version="1.0 (4035a4fb49, 2020-05-01)"
   sodipodi:docname="ico_HLLRifleman.svg"
   viewBox="0 0 170.66667 170.66667"
   height="170.66667"
   width="170.66667"
   id="svg33"
   version="1.1">
  <metadata
     id="metadata39">
    <rdf:RDF>
      <cc:Work
         rdf:about="">
        <dc:format>image/svg+xml</dc:format>
        <dc:type
           rdf:resource="http://purl.org/dc/dcmitype/StillImage" />
        <dc:title></dc:title>
      </cc:Work>
    </rdf:RDF>
  </metadata>
  <defs
     id="defs37" />
  <sodipodi:namedview
     inkscape:current-layer="g41"
     inkscape:window-maximized="1"
     inkscape:window-y="-8"
     inkscape:window-x="-8"
     inkscape:cy="85.333336"
     inkscape:cx="85.333336"
     inkscape:zoom="4.3066405"
     showgrid="false"
     id="namedview35"
     inkscape:window-height="987"
     inkscape:window-width="1680"
     inkscape:pageshadow="2"
     inkscape:pageopacity="0"
     guidetolerance="10"
     gridtolerance="10"
     objecttolerance="10"
     borderopacity="1"
     bordercolor="#666666"
     pagecolor="#ffffff" />
  <g
     inkscape:label="Image 1"
     id="layer2"
     inkscape:groupmode="layer" />
  <g
     id="g41"
     inkscape:label="Image"
     inkscape:groupmode="layer">
    <path
       id="path52"
       d="m 15.905669,158.85182 c -1.44781,-0.31847 -3.418111,-1.95335 -4.766257,-3.95486 -0.685073,-1.01709 -0.690432,-1.05059 -0.690432,-4.31555 0,-3.27408 0.0035,-3.2956 0.696599,-4.31306 0.383129,-0.56241 13.181655,-13.51021 28.441171,-28.77289 15.259514,-15.26268 28.097734,-28.21117 28.529381,-28.774414 0.966893,-1.261675 1.197001,-2.028776 1.189895,-3.966676 -0.0075,-2.049094 -0.285138,-3.097707 -1.072404,-4.050552 C 67.868669,80.262107 55.028459,67.330396 39.699822,51.96668 24.371185,36.602965 11.51894,23.57144 11.139277,23.007733 c -0.650442,-0.965745 -0.694972,-1.180604 -0.771272,-3.721344 -0.104186,-3.469351 0.111527,-4.227556 1.703147,-5.986352 1.969327,-2.176177 2.990109,-2.754663 5.157547,-2.922826 2.605338,-0.202138 4.981305,0.119665 5.892753,0.798119 0.406936,0.302911 13.256662,13.039243 28.554944,28.302959 15.298284,15.263717 28.215197,28.07288 28.704253,28.464807 1.237248,0.99152 1.645459,1.17561 3.017682,1.360864 1.966412,0.265469 3.669942,-0.05996 4.960328,-0.947595 0.624993,-0.42992 13.653041,-13.295698 28.951211,-28.590619 15.29817,-15.294923 28.30573,-28.132731 28.90568,-28.528463 0.90205,-0.594996 1.40435,-0.743837 2.90249,-0.860072 2.61399,-0.202809 4.98539,0.119416 5.87375,0.798119 0.96486,0.737153 2.53744,2.308715 3.25221,3.250088 0.56024,0.737862 0.58049,0.887786 0.58049,4.296066 0,3.342636 -0.0279,3.561289 -0.52244,4.088013 -0.28735,0.306069 -0.52245,0.646469 -0.52245,0.756444 0,0.243098 -1.25089,1.508704 -20.26505,20.503561 -8.27231,8.263905 -17.62415,17.61805 -20.78186,20.786987 -3.15772,3.168936 -6.76833,6.773834 -8.0236,8.010884 -7.43274,7.324918 -8.40654,8.498546 -8.64675,10.421146 -0.305601,2.445953 0.0724,4.032705 1.37234,5.76001 0.28833,0.383129 13.05776,13.248791 28.37652,28.590371 15.31876,15.34157 28.11352,28.24176 28.4328,28.66709 0.55934,0.74514 0.58049,0.90091 0.58049,4.27472 0,3.94796 0.0452,3.82417 -2.23432,6.11856 -2.18582,2.20007 -2.29677,2.24132 -6.02875,2.24132 -3.11295,0 -3.16823,-0.009 -4.17959,-0.68941 -0.5637,-0.37917 -13.59082,-13.23142 -28.94916,-28.56054 -15.35834,-15.32913 -28.345545,-28.20498 -28.860455,-28.61301 -1.100788,-0.87229 -2.267997,-1.102053 -4.841625,-0.95307 -1.632226,0.0945 -1.908929,0.18418 -2.943851,0.95423 -1.445891,1.07583 0.148389,-0.4838 -13.25546,12.96737 -6.406825,6.42945 -12.414988,12.44177 -13.351475,13.36073 -0.936488,0.91895 -4.54346,4.52385 -8.015493,8.01088 -3.472034,3.48703 -7.965095,7.98052 -9.984581,9.98553 -2.019486,2.00501 -4.42317,4.40828 -5.341519,5.34059 -3.803643,3.86148 -6.98248,6.86867 -7.926113,7.49813 -0.938422,0.62599 -1.175026,0.67393 -3.599093,0.7293 -1.42705,0.0326 -2.960351,-0.0212 -3.407336,-0.1195 z"
        />
  </g>
</svg>
