<?xml version="1.0" encoding="UTF-8" standalone="no"?>
<svg
   xmlns:dc="http://purl.org/dc/elements/1.1/"
   xmlns:cc="http://creativecommons.org/ns#"
   xmlns:rdf="http://www.w3.org/1999/02/22-rdf-syntax-ns#"
   xmlns:svg="http://www.w3.org/2000/svg"
   xmlns="http://www.w3.org/2000/svg"
   xmlns:sodipodi="http://sodipodi.sourceforge.net/DTD/sodipodi-0.dtd"
   xmlns:inkscape="http://www.inkscape.org/namespaces/inkscape"
   inkscape:version="1.0 (4035a4fb49, 2020-05-01)"
   sodipodi:docname="ico_HLLSpotter.svg"
   viewBox="0 0 170.66667 170.66667"
   height="170.66667"
   width="170.66667"
   id="svg71"
   version="1.1">
  <metadata
     id="metadata77">
    <rdf:RDF>
      <cc:Work
         rdf:about="">
        <dc:format>image/svg+xml</dc:format>
        <dc:type
           rdf:resource="http://purl.org/dc/dcmitype/StillImage" />
        <dc:title></dc:title>
      </cc:Work>
    </rdf:RDF>
  </metadata>
  <defs
     id="defs75" />
  <sodipodi:namedview
     inkscape:current-layer="g79"
     inkscape:window-maximized="1"
     inkscape:window-y="-8"
     inkscape:window-x="-8"
     inkscape:cy="85.333336"
     inkscape:cx="85.333336"
     inkscape:zoom="4.3066405"
     showgrid="false"
     id="namedview73"
     inkscape:window-height="987"
     inkscape:window-width="1680"
     inkscape:pageshadow="2"
     inkscape:pageopacity="0"
     guidetolerance="10"
     gridtolerance="10"
     objecttolerance="10"
     borderopacity="1"
     bordercolor="#666666"
     pagecolor="#ffffff" />
  <g
     inkscape:label="Image 1"
     id="layer4"
     inkscape:groupmode="layer" />
  <g
     id="g79"
     inkscape:label="Image"
     inkscape:groupmode="layer">
    <path
       id="path86"
       d="m 13.399672,137.94724 c -0.548185,-0.21755 -1.436349,-0.83519 -1.973696,-1.37253 l -0.976996,-0.977 v -2.39648 c 0,-2.18965 0.0519,-2.47494 0.601363,-3.30543 1.28859,-1.94768 1.508892,-2.29401 2.115402,-3.32558 0.344833,-0.5865 0.844135,-1.50611 1.109559,-2.04359 0.265425,-0.53748 0.595945,-1.04729 0.73449,-1.13292 0.138545,-0.0856 0.452015,-0.60807 0.696599,-1.16099 0.244584,-0.55293 0.547796,-1.06904 0.673805,-1.14691 0.126008,-0.0779 0.389245,-0.52486 0.58497,-0.9933 0.195725,-0.46844 0.549841,-1.06211 0.786924,-1.31927 0.237083,-0.25716 0.601545,-0.83328 0.809916,-1.28027 0.526583,-1.12959 1.654382,-3.0403 1.899835,-3.21869 0.112155,-0.0815 0.444344,-0.6184 0.738198,-1.1931 0.537526,-1.05124 1.113195,-2.02038 2.077096,-3.49679 0.28687,-0.43939 0.521972,-0.88831 0.522449,-0.99758 4.88e-4,-0.10927 0.262093,-0.50913 0.581367,-0.88856 0.319274,-0.37944 0.583406,-0.81248 0.586959,-0.96232 0.0036,-0.14984 0.317022,-0.68288 0.696598,-1.18455 0.379577,-0.50166 0.690139,-1.00371 0.690139,-1.11566 0,-0.18246 1.489953,-2.78113 2.09911,-3.66111 0.409501,-0.59157 1.353089,-2.175925 1.659478,-2.786398 0.160239,-0.319275 0.633987,-1.088552 1.052773,-1.709502 0.418786,-0.620953 0.761429,-1.257818 0.761429,-1.415259 0,-0.157441 0.208979,-0.47538 0.464399,-0.706532 0.255419,-0.231152 0.464399,-0.51954 0.464399,-0.640862 0,-0.121324 0.313469,-0.68506 0.696598,-1.252751 0.38313,-0.567688 0.696599,-1.117047 0.696599,-1.220794 0,-0.103747 0.31347,-0.583078 0.696599,-1.065185 0.383129,-0.482107 0.696598,-1.004832 0.696598,-1.161613 0,-0.156781 0.233059,-0.581342 0.517908,-0.943469 0.284848,-0.362127 0.750246,-1.159892 1.034216,-1.772811 0.283969,-0.612918 0.614277,-1.114397 0.734018,-1.114397 0.119741,0 0.288986,-0.283994 0.376105,-0.631098 0.08712,-0.347106 0.464158,-1.046874 0.837869,-1.555043 0.373714,-0.508166 0.679476,-1.047296 0.679476,-1.198066 0,-0.150767 0.173716,-0.417529 0.386037,-0.592805 0.212318,-0.175274 0.576816,-0.748958 0.809993,-1.274852 0.23318,-0.525895 0.581911,-1.087261 0.774964,-1.247481 0.193051,-0.160218 0.351002,-0.397409 0.351002,-0.527093 0,-0.214188 0.908831,-1.784393 2.956121,-5.107347 0.412623,-0.669729 0.901691,-1.531159 1.086817,-1.914288 0.185126,-0.38313 0.605077,-1.056492 0.933221,-1.496359 0.328147,-0.439868 0.59663,-0.9234 0.59663,-1.074515 0,-0.151118 0.17363,-0.418164 0.385844,-0.59344 0.212214,-0.175273 0.624607,-0.857645 0.916429,-1.516379 0.291821,-0.658734 0.637666,-1.263878 0.768543,-1.344765 0.130877,-0.08089 0.444035,-0.612942 0.695912,-1.182346 0.251873,-0.569405 0.561277,-1.035281 0.687561,-1.035281 0.126286,0 0.302874,-0.235102 0.392422,-0.522449 0.163598,-0.524973 1.752233,-3.315616 2.163642,-3.800721 0.121125,-0.142821 0.493928,-0.76976 0.828449,-1.393197 0.33452,-0.623435 0.858922,-1.551479 1.165333,-2.062318 0.306413,-0.510839 0.816968,-1.405566 1.134566,-1.98828 0.3176,-0.582717 0.74234,-1.196327 0.943866,-1.363581 0.201528,-0.167253 0.366413,-0.42378 0.366413,-0.570061 0,-0.146281 0.284389,-0.682058 0.631973,-1.190617 0.347586,-0.508557 0.801699,-1.238118 1.009144,-1.621248 1.068211,-1.972892 1.704249,-3.041723 1.934478,-3.250793 0.140634,-0.12771 0.498077,-0.702404 0.794319,-1.277098 0.790224,-1.532993 1.318769,-2.469623 1.938922,-3.435952 0.303462,-0.472858 0.727259,-1.173209 0.941774,-1.556338 0.995363,-1.777755 1.641138,-2.867895 2.269572,-3.831293 0.374877,-0.574694 0.951275,-1.515102 1.280882,-2.089796 0.329605,-0.574694 0.957152,-1.619592 1.394549,-2.321996 0.437394,-0.702403 0.99836,-1.709668 1.246593,-2.238365 0.248233,-0.528697 0.573118,-1.036535 0.721967,-1.128528 0.148849,-0.09199 0.467253,-0.625953 0.707563,-1.186578 0.240313,-0.560625 0.530938,-1.019318 0.645835,-1.019318 0.1149,0 0.385335,-0.461973 0.600972,-1.026608 0.215635,-0.564634 0.544517,-1.153132 0.730848,-1.307772 0.186331,-0.154641 0.548089,-0.711443 0.803905,-1.237338 0.255819,-0.525895 0.824218,-1.530867 1.26311,-2.233271 0.748463,-1.197839 1.628724,-2.689586 2.455206,-4.16074 0.783174,-1.394068 2.075655,-3.190085 2.770705,-3.850144 0.713301,-0.677388 0.796723,-0.696599 3.025031,-0.696599 2.228561,0 2.311618,0.01913 3.023891,0.696599 0.811539,0.771882 2.781098,3.596879 2.781098,3.989011 0,0.1374 0.162772,0.384906 0.361716,0.550014 0.198941,0.165108 0.517398,0.672803 0.707679,1.12821 0.190283,0.455408 0.539945,1.03842 0.777028,1.295583 0.237082,0.257162 0.604743,0.833282 0.817024,1.280266 0.650951,1.370657 1.418853,2.705559 1.930674,3.356234 0.268307,0.341097 0.606373,0.979361 0.751256,1.418365 0.144886,0.439005 0.363527,0.79819 0.485871,0.79819 0.122344,0 0.419062,0.458693 0.659375,1.019318 0.24031,0.560625 0.558714,1.094585 0.707563,1.186578 0.148849,0.09199 0.473733,0.599831 0.721966,1.128528 0.248233,0.528697 0.788155,1.507112 1.199833,2.174255 0.41167,0.667144 1.32319,2.15885 2.02559,3.314904 0.70241,1.156054 1.6147,2.64776 2.02733,3.314904 0.41262,0.667142 0.91935,1.578702 1.12607,2.025686 0.20671,0.446984 0.51349,0.969433 0.68172,1.160998 0.33238,0.378487 1.17332,1.830714 2.0169,3.482993 0.29341,0.574694 0.66064,1.12653 0.81606,1.226299 0.15543,0.09977 0.50156,0.622221 0.76919,1.160998 0.7523,1.514487 1.45789,2.749944 2.14847,3.761842 0.34708,0.508559 0.63104,1.044336 0.63104,1.190617 0,0.146281 0.16489,0.402808 0.36642,0.570061 0.20152,0.167254 0.62626,0.780864 0.94386,1.363581 0.3176,0.582714 0.82816,1.477441 1.13457,1.98828 0.30641,0.510839 0.83081,1.438883 1.16533,2.062318 0.33452,0.623437 0.70733,1.250376 0.82845,1.393197 0.41141,0.485105 2.00004,3.275748 2.16364,3.800721 0.0895,0.287347 0.26614,0.522449 0.39242,0.522449 0.12629,0 0.43569,0.465876 0.68757,1.035281 0.25187,0.569404 0.57113,1.10523 0.70946,1.190724 0.13833,0.08549 0.49005,0.69482 0.7816,1.354057 0.29155,0.659238 0.69784,1.337839 0.90287,1.508004 0.20504,0.170163 0.37279,0.433027 0.37279,0.584145 0,0.151115 0.26849,0.634647 0.59663,1.074515 0.32815,0.439867 0.7481,1.113229 0.93322,1.496359 0.18513,0.383129 0.6742,1.244559 1.08682,1.914288 2.04729,3.322954 2.95612,4.893159 2.95612,5.107347 0,0.129684 0.15795,0.366875 0.351,0.527093 0.19306,0.16022 0.54179,0.721586 0.77497,1.247481 0.23318,0.525894 0.59767,1.099578 0.80999,1.274852 0.21232,0.175276 0.38604,0.442038 0.38604,0.592805 0,0.15077 0.30576,0.6899 0.67947,1.198066 0.37372,0.508169 0.75287,1.216378 0.84258,1.573795 0.0897,0.357418 0.29674,0.701134 0.46008,0.763812 0.16333,0.06268 0.51594,0.622977 0.78358,1.245112 0.26763,0.622132 0.59274,1.196745 0.72246,1.276916 0.12972,0.08017 0.52121,0.670112 0.86999,1.310978 0.99993,1.837369 1.29722,2.338219 1.97405,3.325664 0.34857,0.508559 0.63377,1.040934 0.63377,1.183061 0,0.142125 0.20898,0.447533 0.4644,0.678685 0.25542,0.231152 0.4644,0.549091 0.4644,0.706532 0,0.157441 0.34265,0.794306 0.76143,1.415259 0.41879,0.62095 0.89254,1.390227 1.05278,1.709502 0.30638,0.610473 1.24997,2.194828 1.65947,2.786398 0.60916,0.87998 2.09911,3.47865 2.09911,3.66111 0,0.11195 0.31056,0.614 0.69014,1.11566 0.37958,0.50167 0.69305,1.03471 0.6966,1.18455 0.004,0.14984 0.26768,0.58288 0.58696,0.96232 0.31927,0.37943 0.58089,0.77929 0.58137,0.88856 4.6e-4,0.10927 0.23557,0.55819 0.52244,0.99758 0.9639,1.47641 1.53957,2.44555 2.0771,3.49679 0.29386,0.5747 0.61584,1.08079 0.71552,1.12466 0.0997,0.0439 0.44805,0.56632 0.77413,1.161 0.81697,1.48987 1.73199,3.04417 2.35261,3.99627 0.28687,0.44009 0.52197,0.91798 0.52245,1.06198 4.6e-4,0.144 0.15882,0.3929 0.35187,0.55312 0.19305,0.16022 0.54692,0.73422 0.78638,1.27557 0.23946,0.54134 0.54874,1.05431 0.68729,1.13993 0.13854,0.0856 0.46906,0.59544 0.73449,1.13292 0.26542,0.53748 0.76472,1.45709 1.10956,2.04359 0.60592,1.03057 0.82382,1.37316 2.11261,3.32156 0.47463,0.71753 0.61645,1.25887 0.68489,2.61418 0.0475,0.9401 0.0183,2.04798 -0.0649,2.46197 -0.23093,1.14942 -1.52007,2.44753 -2.9495,2.97 -1.2194,0.44571 -2.38041,0.45262 -72.063505,0.42893 -66.135695,-0.0225 -70.890123,-0.0503 -71.820843,-0.41962 z M 131.85235,121.06295 c 1.12069,-0.53442 1.55845,-1.5552 1.28999,-3.00802 -0.11611,-0.62835 -0.42229,-1.40368 -0.6804,-1.72295 -0.25811,-0.31928 -0.62869,-0.89397 -0.82351,-1.2771 -0.19482,-0.38313 -0.71285,-1.27129 -1.15117,-1.9737 -0.43833,-0.7024 -1.02217,-1.7473 -1.29742,-2.32199 -0.27526,-0.5747 -0.58905,-1.07932 -0.69732,-1.1214 -0.10827,-0.0421 -0.39955,-0.53471 -0.64728,-1.09475 -0.24773,-0.56004 -0.66691,-1.25062 -0.9315,-1.53463 -0.2646,-0.28401 -0.48108,-0.63932 -0.48108,-0.78958 0,-0.15026 -0.20621,-0.53536 -0.45825,-0.85577 -0.49243,-0.62602 -1.28643,-1.98197 -2.14297,-3.65966 -0.29341,-0.57469 -0.61532,-1.08088 -0.71535,-1.12487 -0.10003,-0.044 -0.49513,-0.670924 -0.87799,-1.393195 -0.38286,-0.722273 -1.00648,-1.783427 -1.38582,-2.358121 -0.37933,-0.574694 -0.9015,-1.484652 -1.16036,-2.022129 -0.25887,-0.537477 -0.56921,-1.038131 -0.68965,-1.112565 -0.12044,-0.07443 -0.41909,-0.587727 -0.66367,-1.14065 -0.24459,-0.552923 -0.56262,-1.078189 -0.70673,-1.167258 -0.14412,-0.08907 -0.42124,-0.542973 -0.61582,-1.008677 -0.19458,-0.465702 -0.44019,-0.902639 -0.54579,-0.970968 -0.1056,-0.06833 -0.42465,-0.583046 -0.709,-1.143811 -0.28436,-0.560764 -0.61973,-1.135458 -0.74527,-1.277097 -0.34889,-0.393613 -1.28907,-1.996157 -1.84373,-3.142663 -0.27341,-0.565148 -0.69714,-1.242254 -0.94163,-1.504677 -0.24448,-0.262425 -0.50897,-0.74044 -0.58774,-1.062255 -0.0788,-0.321817 -0.38821,-0.815231 -0.68762,-1.096481 -0.29941,-0.281249 -0.54438,-0.657408 -0.54438,-0.835909 0,-0.178501 -0.2894,-0.732062 -0.6431,-1.230135 -0.3537,-0.498073 -0.77502,-1.166812 -0.93625,-1.486086 -0.16123,-0.319275 -0.65043,-1.155193 -1.08711,-1.857597 -0.43668,-0.702403 -1.06187,-1.747301 -1.3893,-2.321995 -0.32744,-0.574694 -1.11497,-1.880817 -1.75006,-2.902495 -0.63509,-1.021678 -1.15594,-1.988208 -1.15744,-2.147846 -0.001,-0.159637 -0.11093,-0.290249 -0.24318,-0.290249 -0.13225,0 -0.45319,-0.496327 -0.7132,-1.102948 -0.26001,-0.606621 -0.6266,-1.272985 -0.81465,-1.480811 -0.35382,-0.391028 -1.09379,-1.683974 -1.943218,-3.39538 -0.269391,-0.542766 -0.576538,-0.986848 -0.682544,-0.986848 -0.106006,0 -0.417493,-0.522449 -0.692187,-1.160997 -0.274697,-0.638549 -0.589689,-1.160998 -0.699982,-1.160998 -0.110292,0 -0.37542,-0.43709 -0.589174,-0.97131 -0.213751,-0.534219 -0.643055,-1.273665 -0.95401,-1.643211 -0.310952,-0.369548 -0.565369,-0.769281 -0.565369,-0.888298 0,-0.119018 -0.313469,-0.649127 -0.696598,-1.178022 -0.38313,-0.528895 -0.696599,-1.089889 -0.696599,-1.246654 0,-0.156767 -0.162772,-0.420119 -0.361716,-0.585227 -0.198942,-0.165107 -0.517399,-0.672803 -0.707679,-1.128211 -0.190283,-0.455406 -0.537951,-1.038419 -0.772595,-1.29558 -0.234647,-0.257164 -0.502894,-0.728794 -0.596105,-1.048068 -0.09321,-0.319274 -0.361458,-0.790904 -0.596105,-1.048068 -0.234645,-0.257161 -0.586766,-0.850832 -0.782492,-1.319269 -0.195726,-0.468435 -0.463519,-0.918236 -0.5951,-0.999557 -0.13158,-0.08132 -0.394042,-0.518359 -0.58325,-0.9712 -0.189208,-0.452838 -0.657831,-1.180758 -1.04138,-1.617597 -0.383552,-0.436842 -0.697365,-0.892426 -0.697365,-1.012413 0,-0.339065 -1.295223,-0.926681 -2.04259,-0.926681 -0.727056,0 -2.137002,0.609526 -2.137002,0.923836 0,0.106273 -0.365714,0.630956 -0.812699,1.16596 -0.446984,0.535004 -0.812698,1.105493 -0.812698,1.267752 0,0.162261 -0.225473,0.581657 -0.501049,0.931998 -0.50614,0.643452 -1.027335,1.554624 -2.161829,3.779389 -0.341903,0.670476 -0.707197,1.219047 -0.811765,1.219047 -0.104569,0 -0.353803,0.409073 -0.553854,0.90905 -0.200052,0.499977 -0.469647,0.974509 -0.599101,1.054516 -0.129453,0.08001 -0.430344,0.585219 -0.668644,1.122696 -0.238302,0.537477 -0.60699,1.120637 -0.819309,1.29591 -0.212321,0.175276 -0.386036,0.454605 -0.386036,0.620735 0,0.166129 -0.254417,0.604408 -0.565369,0.973956 -0.310955,0.369546 -0.740259,1.108992 -0.954011,1.643211 -0.213753,0.53422 -0.478881,0.97131 -0.589174,0.97131 -0.110292,0 -0.425285,0.522449 -0.699981,1.160998 -0.274695,0.638548 -0.586181,1.160997 -0.692187,1.160997 -0.106006,0 -0.41182,0.444082 -0.679583,0.986848 -0.525394,1.064986 -1.42891,2.623275 -2.262365,3.901882 -0.286871,0.440088 -0.521973,0.930772 -0.522449,1.090409 -4.64e-4,0.159637 -0.183725,0.477309 -0.407217,0.70594 -0.223492,0.228631 -0.64336,0.881692 -0.933041,1.451247 -0.28968,0.569555 -0.834876,1.505761 -1.211545,2.080455 -0.376672,0.574694 -0.954535,1.515102 -1.284143,2.089796 -0.329605,0.574694 -0.955224,1.619592 -1.390262,2.321995 -0.435037,0.702404 -1.016788,1.722512 -1.292776,2.266906 -0.275987,0.544395 -0.591177,1.045049 -0.700423,1.112566 -0.109242,0.06752 -0.404702,0.588633 -0.656579,1.158037 -0.251873,0.569405 -0.558096,1.03528 -0.680493,1.03528 -0.122399,0 -0.333429,0.318091 -0.468957,0.706869 -0.13553,0.388777 -0.478663,1.033031 -0.762523,1.431671 -0.488422,0.685927 -0.84157,1.29794 -2.082147,3.608399 -0.291433,0.542767 -0.595685,0.986849 -0.676116,0.986849 -0.08043,0 -0.390941,0.522449 -0.690021,1.160997 -0.29908,0.638549 -0.617734,1.160998 -0.70812,1.160998 -0.09039,0 -0.300603,0.339592 -0.467153,0.754649 -0.16655,0.415056 -0.537721,1.041431 -0.824824,1.391943 -0.287105,0.350515 -0.593832,0.872964 -0.681617,1.160998 -0.08778,0.288036 -0.30377,0.68843 -0.479968,0.889761 -0.176198,0.201331 -0.561937,0.828269 -0.857197,1.393197 -0.723546,1.384376 -2.839803,4.887847 -3.220877,5.332174 -0.1687,0.1967 -0.546793,0.82364 -0.840203,1.3932 -0.881357,1.71084 -1.657995,3.03376 -2.142974,3.65031 -0.252034,0.32041 -0.458246,0.70551 -0.458246,0.85577 0,0.15026 -0.19599,0.48357 -0.435532,0.74069 -0.239544,0.25712 -0.659045,0.92988 -0.932226,1.49503 -0.273182,0.56515 -0.852186,1.60223 -1.28668,2.30464 -0.434492,0.7024 -1.231782,2.06077 -1.771755,3.01859 -0.539973,0.95782 -1.218522,2.02579 -1.507887,2.37327 -0.289365,0.34747 -0.638635,1.15642 -0.776155,1.79766 -0.206544,0.96307 -0.184798,1.3027 0.125007,1.95236 0.778639,1.63283 -3.120871,1.50799 47.61862,1.52445 41.815393,0.0136 45.862243,-0.0179 46.584943,-0.36257 z"
        />
    <path
       id="path88"
       d="m 82.153538,108.20296 c -0.663356,-0.097 -1.551519,-0.38548 -1.973696,-0.64115 -0.422177,-0.25568 -1.028819,-0.54152 -1.348094,-0.63522 -0.319274,-0.0937 -1.031561,-0.44519 -1.582859,-0.78112 -1.206174,-0.73496 -4.222129,-3.5108 -4.222129,-3.88598 0,-0.14686 -0.163,-0.4023 -0.362222,-0.56764 -0.600677,-0.49852 -2.127323,-3.784639 -2.435097,-5.241573 -0.375128,-1.77577 -0.377939,-5.641606 -0.0054,-7.373111 0.292426,-1.359009 1.664062,-4.272602 2.638739,-5.605139 1.539405,-2.10461 4.14802,-4.067694 7.010237,-5.275477 2.204687,-0.930322 3.764889,-1.175596 6.435034,-1.011631 3.703941,0.227446 7.020089,1.7725 10.013397,4.665424 1.770749,1.711366 3.574022,4.861154 4.121002,7.198186 0.35271,1.506974 0.36507,5.657564 0.0221,7.410234 -0.29931,1.529428 -1.426207,4.029217 -2.341674,5.194527 -1.945767,2.47681 -4.737983,4.81845 -6.287976,5.2733 -0.319274,0.0937 -0.903095,0.36544 -1.297378,0.60387 -1.290067,0.78015 -5.394932,1.10941 -8.384007,0.6725 z"
        />
    <path
       id="path90"
       d="m 15.78957,160.23282 c -0.510839,-0.0889 -1.338838,-0.44458 -1.839997,-0.79043 -0.866644,-0.59807 -2.455695,-2.26747 -2.455695,-2.57986 0,-0.0806 -0.235102,-0.46463 -0.522449,-0.85329 -0.474663,-0.64201 -0.522449,-0.96586 -0.522449,-3.54067 0,-2.81573 0.0051,-2.84248 0.793684,-4.1436 1.029354,-1.69842 2.512535,-2.91938 4.361771,-3.59062 l 1.483357,-0.53843 h 68.328179 68.328179 l 1.42439,0.55822 c 1.81953,0.71306 3.25195,1.91503 4.25547,3.57083 0.78697,1.29851 0.79368,1.3332 0.79368,4.105 0,2.62783 -0.0381,2.86021 -0.63517,3.87592 -0.56323,0.9581 -1.83085,2.38413 -2.77851,3.12574 -1.20287,0.94133 1.8807,0.9007 -70.774075,0.93248 -38.121362,0.0167 -69.729526,-0.0424 -70.240365,-0.13129 z"
        />
  </g>
</svg>
