<?xml version="1.0" encoding="UTF-8" standalone="no"?>
<svg
   xmlns:dc="http://purl.org/dc/elements/1.1/"
   xmlns:cc="http://creativecommons.org/ns#"
   xmlns:rdf="http://www.w3.org/1999/02/22-rdf-syntax-ns#"
   xmlns:svg="http://www.w3.org/2000/svg"
   xmlns="http://www.w3.org/2000/svg"
   xmlns:sodipodi="http://sodipodi.sourceforge.net/DTD/sodipodi-0.dtd"
   xmlns:inkscape="http://www.inkscape.org/namespaces/inkscape"
   inkscape:version="1.0 (4035a4fb49, 2020-05-01)"
   sodipodi:docname="ico_HLLCrewman.svg"
   viewBox="0 0 170.66667 170.66667"
   height="170.66667"
   width="170.66667"
   id="svg33943"
   version="1.1">
  <metadata
     id="metadata33949">
    <rdf:RDF>
      <cc:Work
         rdf:about="">
        <dc:format>image/svg+xml</dc:format>
        <dc:type
           rdf:resource="http://purl.org/dc/dcmitype/StillImage" />
        <dc:title></dc:title>
      </cc:Work>
    </rdf:RDF>
  </metadata>
  <defs
     id="defs33947" />
  <sodipodi:namedview
     inkscape:current-layer="g33951"
     inkscape:window-maximized="1"
     inkscape:window-y="-8"
     inkscape:window-x="-8"
     inkscape:cy="85.333336"
     inkscape:cx="85.333336"
     inkscape:zoom="4.3066405"
     showgrid="false"
     id="namedview33945"
     inkscape:window-height="987"
     inkscape:window-width="1680"
     inkscape:pageshadow="2"
     inkscape:pageopacity="0"
     guidetolerance="10"
     gridtolerance="10"
     objecttolerance="10"
     borderopacity="1"
     bordercolor="#666666"
     pagecolor="#ffffff" />
  <g
     inkscape:label="Image 1"
     id="layer7"
     inkscape:groupmode="layer" />
  <g
     id="g33951"
     inkscape:label="Image"
     inkscape:groupmode="layer">
    <path
       id="path33958"
       d="m 82.606421,160.23751 c -0.414269,-0.10603 -0.918233,-0.32973 -1.119917,-0.49711 -0.715752,-0.59403 -1.300011,-2.14605 -1.48,-3.93148 -0.09984,-0.99039 -0.24182,-1.89826 -0.315503,-2.01749 -0.223177,-0.36111 -3.374304,-1.18974 -6.083743,-1.59981 -1.404807,-0.21261 -3.725488,-0.68624 -5.157068,-1.05251 -1.636524,-0.4187 -2.866659,-0.61318 -3.31339,-0.52384 -0.788222,0.15765 -1.708218,1.12129 -2.204521,2.30911 -0.420216,1.00572 -1.776794,2.35596 -2.794064,2.781 -0.863214,0.36067 -0.703839,0.39416 -3.826329,-0.80387 -0.710356,-0.27255 -1.676831,-0.89188 -2.185374,-1.40042 -0.788865,-0.78886 -0.92587,-1.08179 -1.01637,-2.17312 -0.06776,-0.81713 0.04063,-1.74312 0.307788,-2.62935 0.226812,-0.7524 0.384559,-1.6277 0.350547,-1.94511 -0.07155,-0.66767 -1.308735,-2.32539 -1.735478,-2.32539 -0.428202,0 -4.272634,-2.47261 -6.524144,-4.19612 -3.539677,-2.70958 -4.28067,-2.86476 -6.296494,-1.31862 -2.458169,1.88542 -3.271376,2.12448 -4.904981,1.44192 -1.041148,-0.43502 -3.445507,-2.9125 -4.000133,-4.12178 -0.44321,-0.96635 -0.332234,-2.34821 0.25278,-3.1476 0.177383,-0.24238 0.766595,-1.02427 1.309362,-1.73752 0.671862,-0.8829 0.986848,-1.5275 0.986848,-2.01955 0,-0.69124 -0.876305,-2.24374 -1.92473,-3.40994 -0.254024,-0.28256 -0.57794,-0.7117 -0.719813,-0.95365 -0.141874,-0.24194 -0.571421,-0.8854 -0.95455,-1.42991 -1.09997,-1.56329 -2.156687,-3.28199 -2.719746,-4.42355 -0.573709,-1.16314 -1.727956,-2.06472 -2.690807,-2.10178 -0.34465,-0.0133 -1.424199,0.14954 -2.399,0.36179 -2.357292,0.51326 -3.310769,0.26851 -4.582568,-1.17633 -0.511127,-0.58067 -0.99858,-1.38832 -1.08323,-1.79478 -0.08465,-0.40646 -0.286684,-0.94953 -0.448964,-1.20682 -0.548836,-0.87017 -0.628629,-1.85975 -0.230243,-2.85541 0.379734,-0.94905 1.75815,-2.25706 2.899172,-2.75109 0.322734,-0.13974 0.923551,-0.53743 1.335147,-0.88376 0.951805,-0.8009 0.958633,-1.31804 0.06668,-5.05032 -0.374919,-1.56881 -0.899686,-4.158513 -1.166147,-5.754884 -0.556025,-3.331149 -0.946852,-4.616318 -1.497573,-4.924516 -0.213466,-0.119462 -1.197622,-0.298809 -2.187013,-0.39855 -2.029623,-0.204607 -3.611761,-1.002227 -3.996796,-2.014942 -0.251352,-0.661107 -0.263402,-5.470426 -0.01593,-6.359569 0.287673,-1.033602 1.925671,-1.899119 3.987444,-2.106968 1.003298,-0.101143 1.998833,-0.281637 2.212299,-0.401099 0.550721,-0.308198 0.941548,-1.593367 1.497573,-4.924516 0.266461,-1.596372 0.791228,-4.18607 1.166147,-5.754887 0.891949,-3.732276 0.885121,-4.249421 -0.06668,-5.050312 -0.411596,-0.346335 -1.012413,-0.744028 -1.335147,-0.883763 -1.194422,-0.517153 -2.534428,-1.81095 -2.919246,-2.81858 -0.387992,-1.015943 -0.348647,-1.47893 0.237209,-2.791325 0.17103,-0.383129 0.494852,-1.144356 0.719604,-1.691615 0.541215,-1.317825 1.888209,-2.515341 3.032123,-2.69564 0.521999,-0.08228 1.52939,0.01149 2.407011,0.22405 0.830113,0.20105 1.850445,0.357917 2.267404,0.348596 0.915765,-0.02048 2.309578,-0.883301 2.472675,-1.530687 0.065,-0.258008 0.451119,-0.989437 0.858041,-1.625397 0.932883,-1.45796 2.732327,-4.141307 3.341562,-4.982967 2.897528,-4.002935 2.950165,-4.227725 1.451248,-6.197458 -0.542767,-0.713252 -1.131979,-1.495135 -1.309362,-1.737519 -0.177382,-0.242383 -0.397667,-0.85168 -0.489521,-1.353992 -0.238014,-1.3016 0.327829,-2.397512 2.189898,-4.241348 2.524025,-2.49931 3.773203,-2.594891 6.554628,-0.50153 2.456969,1.849167 2.980869,1.769086 6.641613,-1.015199 2.074416,-1.577758 3.962079,-2.835743 4.256121,-2.836383 0.139844,-3.02e-4 0.432307,-0.197291 0.649917,-0.437748 0.21761,-0.240457 0.834623,-0.610083 1.371136,-0.821392 1.021892,-0.402478 1.937515,-1.525951 2.040363,-2.503534 0.03088,-0.293464 -0.12944,-1.149173 -0.356252,-1.901576 -0.266068,-0.882623 -0.375509,-1.812721 -0.308447,-2.621397 0.08865,-1.068985 0.233974,-1.38656 0.987765,-2.158512 0.486105,-0.497816 1.208594,-1.024253 1.605535,-1.169861 0.39694,-0.145608 1.168586,-0.465614 1.714768,-0.711125 1.263256,-0.567838 2.535162,-0.56658 3.399731,0.0034 0.794401,0.523685 2.224897,2.265785 2.224897,2.709545 0,0.560785 1.375157,1.887441 2.108469,2.034103 0.455845,0.09117 1.709237,-0.104599 3.426678,-0.535213 1.489365,-0.373429 3.857325,-0.854036 5.262132,-1.068015 2.471806,-0.376503 5.361228,-1.132074 5.774199,-1.509928 0.110776,-0.101355 0.285327,-1.016716 0.387894,-2.034135 0.21018,-2.084895 0.834405,-3.542367 1.783516,-4.16425 0.916679,-0.600631 6.179858,-0.600631 7.096538,0 0.949111,0.621883 1.573336,2.079355 1.783516,4.16425 0.102567,1.017419 0.277118,1.93278 0.387894,2.034135 0.412971,0.377854 3.302393,1.133425 5.774199,1.509928 1.404807,0.213979 3.796262,0.700519 5.314352,1.081199 1.68906,0.423554 3.01436,0.636316 3.41521,0.548274 0.67827,-0.148973 2.06771,-1.527057 2.06771,-2.050814 0,-0.656483 1.54474,-2.315263 2.63319,-2.827587 1.18201,-0.556363 1.5194,-0.536008 3.1718,0.191358 0.44699,0.196756 1.13747,0.47742 1.53441,0.623697 0.39694,0.146277 1.12156,0.675443 1.61027,1.175926 0.78213,0.800969 0.90022,1.07123 0.98594,2.256257 0.0603,0.834054 -0.0444,1.823543 -0.27512,2.600643 -0.20488,0.689895 -0.3725,1.489369 -0.3725,1.776608 0,0.910895 0.9693,2.13269 2.02037,2.546662 0.53652,0.211309 1.15353,0.580935 1.37114,0.821392 0.21761,0.240457 0.51007,0.437444 0.64992,0.437748 0.29404,6.5e-4 2.1817,1.258625 4.25612,2.836383 3.85001,2.928242 4.34597,2.960745 7.34765,0.481558 1.10462,-0.912344 2.50324,-1.181361 3.65025,-0.702108 1.05167,0.439414 3.65647,3.057846 4.15939,4.181158 0.43476,0.97107 0.32004,2.35794 -0.26068,3.151461 -0.17738,0.242384 -0.76659,1.024267 -1.30936,1.737519 -0.67186,0.882897 -0.98685,1.527504 -0.98685,2.019549 0,0.69124 0.87631,2.243742 1.92473,3.409939 0.25403,0.282561 0.57794,0.711701 0.71982,0.953648 0.14187,0.241945 0.57142,0.885407 0.95455,1.429915 1.11538,1.585189 2.16071,3.289511 2.72596,4.444439 0.72921,1.489957 2.68657,2.583048 3.67659,2.053206 0.75562,-0.404399 3.34946,-0.688453 4.16108,-0.455685 1.15751,0.331969 2.48059,1.740675 2.93021,3.119836 0.21091,0.646949 0.46479,1.280761 0.56418,1.408471 0.47132,0.605667 0.48765,1.927103 0.0348,2.814173 -0.46861,0.917882 -1.77923,2.101334 -2.83741,2.56209 -0.32273,0.140529 -0.92355,0.53887 -1.33514,0.885205 -0.935,0.786745 -0.95743,1.389705 -0.1701,4.571779 0.31804,1.285401 0.84609,3.866826 1.17345,5.736504 0.65776,3.756789 1.12497,5.267175 1.69908,5.492782 0.20928,0.08224 1.16801,0.230305 2.13051,0.329037 1.97906,0.203007 3.56769,1.013082 3.9479,2.013105 0.12275,0.322855 0.22318,1.775038 0.22318,3.227072 0,1.452034 -0.10043,2.904217 -0.22318,3.227072 -0.38021,1.000023 -1.96884,1.810098 -3.9479,2.013105 -0.9625,0.09873 -1.92123,0.246798 -2.13051,0.329036 -0.42639,0.167555 -1.02684,1.616218 -1.25266,3.02217 -0.41298,2.571223 -1.14743,6.276613 -1.64331,8.290703 -0.76266,3.09768 -0.73644,3.70567 0.19354,4.4882 0.41159,0.34633 1.01241,0.74467 1.33514,0.8852 1.05818,0.46076 2.3688,1.64421 2.83741,2.56209 0.45288,0.88707 0.43655,2.20851 -0.0348,2.81417 -0.0994,0.12771 -0.35699,0.77275 -0.57246,1.43342 -0.47958,1.47049 -1.97253,2.95208 -3.20833,3.18391 -0.50174,0.0941 -1.51584,0.006 -2.53785,-0.22124 -0.93621,-0.2079 -1.98418,-0.36654 -2.32883,-0.35252 -0.96105,0.0391 -2.1156,0.93876 -2.69899,2.10315 -1.10114,2.19777 -1.83191,3.35203 -3.23401,5.10814 -0.28735,0.3599 -0.52245,0.75709 -0.52245,0.88266 0,0.12556 -0.16816,0.36785 -0.37368,0.53842 -0.77585,0.6439 -2.18052,3.04058 -2.18052,3.72046 0,0.45366 0.33812,1.13442 0.98685,1.98692 0.54277,0.71325 1.13198,1.49514 1.30936,1.73752 0.58424,0.79833 0.69545,2.18037 0.25466,3.16489 -0.52744,1.17809 -2.96725,3.67213 -4.02435,4.11382 -1.6094,0.67245 -2.43294,0.42768 -4.88264,-1.45125 -2.00498,-1.53782 -2.6717,-1.39538 -6.29875,1.34572 -2.24285,1.69501 -4.57314,3.20524 -6.06615,3.9314 -1.07596,0.52331 -2.09767,1.71829 -2.19962,2.57266 -0.0372,0.3121 0.12118,1.12632 0.35204,1.80937 0.28814,0.8525 0.38839,1.67543 0.31974,2.62453 -0.0897,1.23984 -0.19467,1.47729 -1.01659,2.29921 -0.51307,0.51307 -1.47729,1.13172 -2.19019,1.40524 -3.24301,1.24427 -2.97105,1.19934 -4.06242,0.67102 -0.97357,-0.4713 -2.66788,-2.33293 -2.66788,-2.93135 0,-0.5582 -1.37869,-1.88272 -2.11249,-2.02948 -0.46567,-0.0931 -1.64331,0.0962 -3.31058,0.53237 -1.4233,0.37232 -3.737195,0.8473 -5.142003,1.05553 -2.693438,0.39923 -5.858304,1.22706 -6.083363,1.59122 -0.07348,0.11888 -0.222245,1.0908 -0.330599,2.15981 -0.212242,2.09393 -0.873579,3.52148 -1.883782,4.06628 -0.624728,0.33691 -5.077301,0.49649 -6.155248,0.2206 z m 9.392523,-23.80221 c 0.537196,-0.1964 2.161781,-0.51245 3.610188,-0.70231 1.448405,-0.18987 3.103117,-0.55297 3.677135,-0.80689 0.574016,-0.25391 1.509433,-0.53342 2.078703,-0.62112 0.56927,-0.0877 1.50524,-0.39235 2.07993,-0.67698 0.57469,-0.28463 1.30612,-0.59546 1.6254,-0.69073 0.69292,-0.20677 3.39887,-1.52658 4.91702,-2.39824 0.59715,-0.34286 1.48532,-0.8476 1.9737,-1.12165 3.75028,-2.1044 8.78337,-6.3095 12.15261,-10.1534 2.28783,-2.61013 2.76126,-3.24167 4.19969,-5.6023 0.54474,-0.89397 1.11759,-1.78213 1.27302,-1.97369 0.39782,-0.49035 2.9547,-5.62008 3.70361,-7.43039 0.34341,-0.83011 0.80538,-2.18848 1.02658,-3.01859 0.22121,-0.83012 0.56112,-1.822771 0.75536,-2.2059 0.19424,-0.38313 0.47704,-1.689252 0.62846,-2.902495 0.15142,-1.213243 0.47915,-3.006979 0.7283,-3.986079 0.66683,-2.620555 0.66121,-10.904609 -0.009,-13.704427 -0.25426,-1.061695 -0.57634,-2.818519 -0.71573,-3.904052 -0.1394,-1.085533 -0.49396,-2.600635 -0.78793,-3.366894 -0.29397,-0.766258 -0.60454,-1.790249 -0.69016,-2.275537 -0.0856,-0.485288 -0.41119,-1.362891 -0.72348,-1.95023 -0.31231,-0.58734 -0.56782,-1.216904 -0.56782,-1.399033 0,-0.382439 -2.91461,-6.035892 -3.39432,-6.58396 -0.17648,-0.201621 -0.32087,-0.448793 -0.32087,-0.549273 0,-0.100477 -0.49633,-0.910598 -1.10295,-1.800268 -0.60662,-0.889668 -1.27263,-1.876751 -1.48002,-2.193517 -1.52341,-2.326782 -7.97241,-8.754023 -10.24605,-10.211484 -0.47892,-0.306994 -0.87075,-0.661349 -0.87075,-0.787456 0,-0.12611 -0.14106,-0.229288 -0.31346,-0.229288 -0.17241,0 -0.72098,-0.290187 -1.21905,-0.64486 -0.74129,-0.527862 -3.00873,-1.887518 -4.73688,-2.840432 -1.28218,-0.707001 -3.74769,-1.848042 -4.52789,-2.095511 -0.51084,-0.162031 -1.13778,-0.428526 -1.3932,-0.592215 -0.25542,-0.163689 -1.17384,-0.46077 -2.04094,-0.660181 -0.86709,-0.199413 -1.886501,-0.522857 -2.26535,-0.718769 -0.37885,-0.195909 -1.550225,-0.460914 -2.603055,-0.588895 -1.05283,-0.127981 -2.8024,-0.456897 -3.887933,-0.730922 -1.725538,-0.435586 -2.645185,-0.499666 -7.314286,-0.50966 -4.475279,-0.0096 -5.518868,0.05291 -6.4409,0.385665 -0.60517,0.218402 -2.279447,0.551667 -3.720614,0.740587 -1.441166,0.188922 -2.93442,0.500195 -3.318341,0.69172 -0.383921,0.191525 -1.426379,0.515764 -2.316574,0.720534 -0.890195,0.204767 -1.827517,0.506232 -2.082937,0.669921 -0.255419,0.163689 -0.882358,0.430184 -1.393197,0.592215 -1.535563,0.48706 -5.655069,2.601002 -6.755558,3.466649 -0.341747,0.268815 -0.723824,0.488757 -0.849065,0.488757 -0.300987,0 -3.282629,1.986939 -3.655075,2.435711 -0.160073,0.192876 -0.397864,0.350684 -0.528425,0.350684 -0.130559,0 -0.457357,0.211099 -0.726216,0.46911 -0.268859,0.258013 -1.399016,1.254769 -2.511461,2.215019 -1.793442,1.548079 -4.416849,4.322978 -5.93304,6.275655 -0.288903,0.372074 -0.863597,1.111495 -1.277098,1.64316 -0.413498,0.531663 -1.065287,1.506639 -1.448416,2.166612 -0.38313,0.659974 -0.947511,1.583344 -1.254182,2.051932 -0.826101,1.262269 -3.21889,6.086828 -3.413333,6.882269 -0.09273,0.379335 -0.352809,1.006274 -0.577959,1.393197 -0.22515,0.386926 -0.481366,1.121459 -0.56937,1.632298 -0.08801,0.510839 -0.400525,1.555737 -0.69449,2.321996 -0.293967,0.766258 -0.64904,2.28136 -0.789054,3.366893 -0.140014,1.085533 -0.46086,2.809615 -0.712991,3.831293 -0.379786,1.538949 -0.458892,2.66671 -0.461163,6.574412 -0.0024,4.096302 0.07128,5.07409 0.559912,7.432633 0.309462,1.493701 0.637044,3.393992 0.727962,4.222867 0.09092,0.828879 0.348079,1.872764 0.571469,2.319748 0.223387,0.446984 0.533334,1.439641 0.688769,2.205901 0.155436,0.76625 0.468328,1.70666 0.695314,2.08979 0.226987,0.38313 0.541657,1.09961 0.699269,1.59219 0.347735,1.08676 2.920372,6.15533 3.384606,6.66831 0.182899,0.2021 0.332542,0.44966 0.332542,0.55014 0,0.26781 2.025089,3.26927 2.435711,3.61006 0.192876,0.16007 0.350684,0.39527 0.350684,0.52267 0,0.29883 3.542534,4.35021 5.148635,5.88818 0.680268,0.65141 2.072771,1.8763 3.094449,2.72198 1.021678,0.84567 2.078005,1.72331 2.347391,1.95031 0.269389,0.22699 0.758431,0.56945 1.086764,0.76101 0.328332,0.19157 1.623028,0.95771 2.877099,1.70253 3.43313,2.03903 5.634517,3.16227 7.137412,3.6418 0.500441,0.15967 1.23187,0.47322 1.625397,0.69677 0.39353,0.22356 1.170952,0.47392 1.727609,0.55636 0.556656,0.0824 1.44482,0.3595 1.973696,0.61569 0.538845,0.26101 2.084504,0.61425 3.515789,0.80348 1.404807,0.18573 2.91991,0.45284 3.366894,0.59358 1.602014,0.50442 3.670949,0.64479 8.243084,0.55929 3.421293,-0.064 4.901147,-0.18087 5.62071,-0.44395 z"
        />
  </g>
</svg>
