<?xml version="1.0" encoding="UTF-8" standalone="no"?>
<svg
   xmlns:dc="http://purl.org/dc/elements/1.1/"
   xmlns:cc="http://creativecommons.org/ns#"
   xmlns:rdf="http://www.w3.org/1999/02/22-rdf-syntax-ns#"
   xmlns:svg="http://www.w3.org/2000/svg"
   xmlns="http://www.w3.org/2000/svg"
   xmlns:sodipodi="http://sodipodi.sourceforge.net/DTD/sodipodi-0.dtd"
   xmlns:inkscape="http://www.inkscape.org/namespaces/inkscape"
   inkscape:version="1.0 (4035a4fb49, 2020-05-01)"
   sodipodi:docname="ico_HLLAutomaticRifleman.svg"
   viewBox="0 0 170.66667 170.66667"
   height="170.66667"
   width="170.66667"
   id="svg33859"
   version="1.1">
  <metadata
     id="metadata33865">
    <rdf:RDF>
      <cc:Work
         rdf:about="">
        <dc:format>image/svg+xml</dc:format>
        <dc:type
           rdf:resource="http://purl.org/dc/dcmitype/StillImage" />
        <dc:title></dc:title>
      </cc:Work>
    </rdf:RDF>
  </metadata>
  <defs
     id="defs33863" />
  <sodipodi:namedview
     inkscape:current-layer="g33867"
     inkscape:window-maximized="1"
     inkscape:window-y="-8"
     inkscape:window-x="-8"
     inkscape:cy="85.106757"
     inkscape:cx="40.735484"
     inkscape:zoom="3.0452547"
     showgrid="false"
     id="namedview33861"
     inkscape:window-height="987"
     inkscape:window-width="1680"
     inkscape:pageshadow="2"
     inkscape:pageopacity="0"
     guidetolerance="10"
     gridtolerance="10"
     objecttolerance="10"
     borderopacity="1"
     bordercolor="#666666"
     pagecolor="#ffffff" />
  <g
     inkscape:label="Image 1"
     id="layer4"
     inkscape:groupmode="layer" />
  <g
     id="g33867"
     inkscape:label="Image"
     inkscape:groupmode="layer">
    <path
       d=""
       id="path33871"
       style="fill:#000000;stroke-width:1.33333" />
    <path
       id="path33879"
       d="m 14.629293,157.7898 c -3.04292,-1.60419 -4.294463,-4.64368 -2.966248,-7.20381 0.264957,-0.51071 13.627941,-14.08558 29.695521,-30.16638 26.975536,-26.997742 29.290987,-29.40136 30.221507,-31.372296 0.826765,-1.751167 1.007322,-2.547255 1.00545,-4.433126 -0.0045,-4.503581 1.350833,-2.960597 -31.241406,-35.567754 C 25.333763,33.028752 11.980374,19.417457 11.66992,18.799112 c -1.514547,-3.016591 0.549371,-6.796413 4.203937,-7.699011 2.301204,-0.568347 2.34606,-0.527405 33.563691,30.635202 28.493712,28.443488 29.624875,29.528202 31.524456,30.229939 1.559036,0.575936 2.450061,0.697528 4.268937,0.582556 4.388326,-0.277389 2.912463,1.031418 35.465019,-31.450602 31.81836,-31.7494285 30.50532,-30.568726 33.17533,-29.831501 1.35542,0.37425 3.27066,1.961339 3.94835,3.271853 0.62923,1.216798 0.58102,2.838288 -0.12368,4.159452 -0.31456,0.589756 -13.74814,14.258563 -29.85238,30.375129 -32.780709,32.805801 -31.118996,30.906913 -31.102807,35.542059 0.01612,4.613995 -1.805714,2.531936 31.032317,35.465012 16.20789,16.2548 29.70591,30.0271 29.99562,30.60511 1.15987,2.31416 0.19152,5.07489 -2.34411,6.68294 -1.80851,1.14692 -2.90775,1.21102 -4.77707,0.27855 -0.93795,-0.46788 -10.74869,-10.05087 -30.50866,-29.80046 C 87.570821,95.294398 89.24694,96.765848 84.738372,96.767591 c -4.827153,0.002 -2.771713,-1.789597 -35.793394,31.196569 -20.621159,20.59899 -29.75425,29.50949 -30.610865,29.86483 -1.526041,0.63304 -2.448186,0.62329 -3.70482,-0.0392 z"
        />
    <path
       id="path33881"
       d="M 23.659737,99.187912 C 22.666388,99.027985 20.765578,98.363949 19.435715,97.712279 8.7611164,92.48142 8.3673751,77.894105 18.738843,71.89458 c 7.207393,-4.169221 16.796065,-1.099833 20.438125,6.542359 1.026649,2.154233 1.065882,2.388019 1.064192,6.341438 -0.0017,4.016725 -0.02538,4.150101 -1.10356,6.219717 -1.338998,2.570272 -4.241526,5.550272 -6.540846,6.715425 -1.723848,0.87354 -5.274351,1.859969 -6.474169,1.798705 -0.361218,-0.01844 -1.4695,-0.164384 -2.462848,-0.324312 z"
        />
    <path
       id="path33883"
       d="m 140.30214,99.044303 c -7.79978,-2.099414 -12.35857,-8.756109 -11.28788,-16.482396 0.77338,-5.580804 4.76914,-10.227973 10.26502,-11.938484 5.0673,-1.577121 10.82053,-0.05725 14.65665,3.871952 3.81863,3.911275 5.22582,9.298466 3.70016,14.165427 -1.72736,5.510399 -6.49094,9.647276 -12.14746,10.54932 -2.66082,0.424319 -3.03891,0.412231 -5.18649,-0.165819 z"
        />
  </g>
</svg>
