<?xml version="1.0" encoding="UTF-8" standalone="no"?>
<svg
   xmlns:dc="http://purl.org/dc/elements/1.1/"
   xmlns:cc="http://creativecommons.org/ns#"
   xmlns:rdf="http://www.w3.org/1999/02/22-rdf-syntax-ns#"
   xmlns:svg="http://www.w3.org/2000/svg"
   xmlns="http://www.w3.org/2000/svg"
   xmlns:sodipodi="http://sodipodi.sourceforge.net/DTD/sodipodi-0.dtd"
   xmlns:inkscape="http://www.inkscape.org/namespaces/inkscape"
   inkscape:version="1.0 (4035a4fb49, 2020-05-01)"
   sodipodi:docname="ico_HLLOfficer.svg"
   viewBox="0 0 170.66667 170.66667"
   height="170.66667"
   width="170.66667"
   id="svg10"
   version="1.1">
  <metadata
     id="metadata16">
    <rdf:RDF>
      <cc:Work
         rdf:about="">
        <dc:format>image/svg+xml</dc:format>
        <dc:type
           rdf:resource="http://purl.org/dc/dcmitype/StillImage" />
        <dc:title></dc:title>
      </cc:Work>
    </rdf:RDF>
  </metadata>
  <defs
     id="defs14" />
  <sodipodi:namedview
     inkscape:current-layer="g18"
     inkscape:window-maximized="1"
     inkscape:window-y="-8"
     inkscape:window-x="-8"
     inkscape:cy="85.333336"
     inkscape:cx="85.333336"
     inkscape:zoom="4.3066405"
     showgrid="false"
     id="namedview12"
     inkscape:window-height="987"
     inkscape:window-width="1680"
     inkscape:pageshadow="2"
     inkscape:pageopacity="0"
     guidetolerance="10"
     gridtolerance="10"
     objecttolerance="10"
     borderopacity="1"
     bordercolor="#666666"
     pagecolor="#ffffff" />
  <g
     inkscape:label="Image 1"
     id="layer1"
     inkscape:groupmode="layer" />
  <g
     id="g18"
     inkscape:label="Image"
     inkscape:groupmode="layer">
    <path
       id="path25"
       d="m 84.172338,122.67121 c -0.470808,-0.16849 -2.507307,-1.43138 -3.366893,-2.0879 -0.38313,-0.29263 -0.905579,-0.68996 -1.160998,-0.88298 -0.636673,-0.48111 -2.851917,-2.07207 -3.787154,-2.71989 -0.42271,-0.2928 -1.190146,-0.87196 -1.705417,-1.28701 -0.51527,-0.41506 -1.027823,-0.75465 -1.139007,-0.75465 -0.111181,0 -0.545722,-0.28735 -0.965641,-0.63855 -0.419921,-0.3512 -0.932622,-0.74304 -1.139333,-0.87075 -0.206712,-0.12771 -1.02955,-0.7024 -1.828528,-1.2771 -0.798978,-0.57469 -1.614955,-1.14938 -1.813283,-1.27709 -0.198327,-0.12771 -1.427215,-1.03211 -2.73086,-2.00978 -1.303645,-0.97766 -2.616972,-1.90902 -2.918502,-2.06967 -0.301532,-0.16066 -0.652729,-0.40926 -0.780439,-0.55245 -0.12771,-0.1432 -0.987145,-0.77919 -1.909858,-1.41332 -0.922712,-0.63413 -2.0721,-1.44299 -2.554195,-1.79747 -0.482095,-0.35447 -1.442653,-1.03366 -2.134571,-1.5093 -1.47136,-1.01144 -2.339062,-1.632267 -3.618156,-2.588738 -0.510839,-0.381992 -1.37288,-0.9701 -1.915647,-1.306903 -0.542766,-0.336805 -0.986848,-0.694258 -0.986848,-0.794338 0,-0.100081 -0.315944,-0.312834 -0.702102,-0.472787 -0.386154,-0.15995 -0.777991,-0.413466 -0.870748,-0.563369 -0.09275,-0.149901 -0.84783,-0.732357 -1.677944,-1.294348 -0.830113,-0.56199 -1.740481,-1.223847 -2.02304,-1.470796 -0.282561,-0.246946 -0.719935,-0.565074 -0.971944,-0.706948 -0.516275,-0.290646 -2.457118,-1.64227 -3.854902,-2.684596 -0.918261,-0.684747 -3.111894,-2.232194 -3.801587,-2.681744 -0.195931,-0.12771 -0.988075,-0.705845 -1.760319,-1.284747 -0.772245,-0.578901 -2.083265,-1.509327 -2.913378,-2.067614 -0.830113,-0.558287 -1.561542,-1.08419 -1.625397,-1.168674 -0.06386,-0.08448 -0.624939,-0.512424 -1.246853,-0.95098 -0.621914,-0.438555 -1.422259,-1.006353 -1.778544,-1.261772 -0.356286,-0.25542 -1.494013,-1.039093 -2.528283,-1.741497 -1.518156,-1.031025 -1.924618,-1.433689 -2.109503,-2.089796 -0.540857,-1.919351 -0.145413,-3.816943 1.048742,-5.032536 0.480085,-0.488704 1.041467,-1.15246 1.247516,-1.475014 0.748071,-1.171048 3.700043,-4.999115 4.239485,-5.497694 0.965416,-0.892284 2.072684,-1.229243 3.20405,-0.975042 1.107199,0.248771 1.672604,0.508703 2.15428,0.990378 0.17584,0.17584 0.659568,0.495457 1.07495,0.71026 0.415383,0.214803 0.813289,0.541822 0.884237,0.726709 0.07095,0.184887 0.238567,0.336159 0.372486,0.336159 0.133919,0 0.618399,0.287347 1.076623,0.638548 1.67466,1.283531 3.516533,2.614693 4.89959,3.541044 1.064857,0.713225 2.371296,1.644592 3.599093,2.565813 0.510839,0.383285 1.451247,1.054945 2.089796,1.492578 0.638549,0.437634 1.55544,1.088018 2.037535,1.445297 0.482095,0.35728 1.631483,1.168435 2.554195,1.802567 0.922712,0.634132 1.782148,1.271135 1.909858,1.415564 0.127709,0.144428 0.571791,0.438072 0.986848,0.652542 0.415056,0.21447 0.754648,0.472511 0.754648,0.573425 0,0.100914 0.397315,0.406782 0.88292,0.679709 0.485609,0.272926 1.076496,0.710126 1.313087,0.971555 0.23659,0.26143 0.528056,0.475326 0.647702,0.475326 0.119643,0 0.495286,0.212571 0.834759,0.472379 2.058131,1.575145 2.979699,2.243916 3.287519,2.385712 0.191564,0.08824 0.818503,0.523113 1.393197,0.966375 0.574694,0.443265 1.906939,1.387295 2.960544,2.097849 1.053606,0.710554 1.915647,1.373442 1.915647,1.473086 0,0.09965 0.339592,0.35964 0.754648,0.577766 0.870549,0.457505 2.172167,1.362788 2.844445,1.978328 0.255419,0.233865 0.725623,0.561603 1.044898,0.728308 0.319274,0.166703 0.632744,0.37272 0.696598,0.457812 0.06386,0.08509 0.62494,0.513532 1.246854,0.952087 0.621914,0.438556 1.417583,1.006353 1.768153,1.261773 0.35057,0.255419 1.243891,0.882358 1.985155,1.393197 0.741265,0.510839 1.669678,1.164279 2.06314,1.452086 1.412344,1.033099 2.553682,1.812761 3.884496,2.653541 l 1.353055,0.85483 1.321401,-0.70514 c 1.089418,-0.58134 4.351,-2.810546 5.316636,-3.633774 0.135753,-0.115733 0.488434,-0.339729 0.783736,-0.497771 0.577279,-0.308949 2.320187,-1.555709 3.26513,-2.335656 1.202949,-0.992902 2.392108,-1.851608 2.564154,-1.851608 0.09807,0 0.616035,-0.365714 1.151039,-0.812699 0.535004,-0.446984 1.119581,-0.812698 1.299071,-0.812698 0.17948,0 0.32633,-0.09709 0.32633,-0.215748 0,-0.118663 0.49632,-0.554251 1.10294,-0.967977 1.34402,-0.916638 2.67029,-1.851165 3.83709,-2.703706 0.48209,-0.352254 1.6264,-1.162909 2.5429,-1.801458 0.9165,-0.638549 1.8543,-1.343855 2.084,-1.567347 0.22971,-0.223492 0.49601,-0.406594 0.5918,-0.406894 0.0958,-3.02e-4 0.53716,-0.310793 0.98084,-0.689985 0.44368,-0.379192 1.09674,-0.809582 1.45124,-0.956424 0.35451,-0.146841 0.64456,-0.360487 0.64456,-0.474769 0,-0.114283 0.36571,-0.382183 0.8127,-0.595335 0.44698,-0.213152 0.8127,-0.463723 0.8127,-0.556825 0,-0.0931 0.49632,-0.490443 1.10295,-0.882978 2.07853,-1.344993 2.73685,-1.819211 3.05109,-2.197846 0.17304,-0.208494 0.40579,-0.37908 0.51722,-0.37908 0.11144,0 1.02294,-0.626939 2.02556,-1.393198 1.00262,-0.766258 1.89013,-1.393197 1.97226,-1.393197 0.0821,0 0.79048,-0.496326 1.57413,-1.102948 2.33347,-1.80633 3.07214,-2.341876 3.78979,-2.74766 0.37484,-0.211947 1.31525,-0.870782 2.08979,-1.464078 0.77455,-0.593296 1.6695,-1.260005 1.98877,-1.481577 0.31928,-0.221572 1.10295,-0.763389 1.7415,-1.204038 0.63855,-0.440649 1.57896,-1.115504 2.0898,-1.499677 1.99747,-1.502187 3.55879,-1.811596 5.08855,-1.008403 0.69675,0.365826 2.07609,1.931978 3.57452,4.058636 0.81048,1.15027 2.33051,3.257615 2.71639,3.765964 0.48596,0.64017 0.64305,1.72023 0.54181,3.725024 -0.0829,1.641936 -0.13426,1.784604 -0.89622,2.490131 -0.99788,0.923966 -3.60346,2.738014 -3.93271,2.738014 -0.13335,0 -0.24246,0.103179 -0.24246,0.229287 0,0.126107 -0.39183,0.490719 -0.87075,0.810248 -0.47891,0.319529 -1.75891,1.212702 -2.84444,1.98483 -1.08553,0.772127 -2.23492,1.582001 -2.5542,1.79972 -1.06204,0.724227 -2.66572,1.907183 -3.01859,2.226664 -0.19156,0.173441 -0.60952,0.448767 -0.9288,0.611836 -0.31927,0.163069 -0.73723,0.438395 -0.9288,0.611837 -0.58103,0.526057 -2.46087,1.876158 -3.04755,2.18875 -0.30335,0.161625 -0.65781,0.437882 -0.78769,0.613903 -0.12989,0.176021 -0.45216,0.446302 -0.71616,0.600621 -1.16028,0.678241 -3.04121,2.006286 -3.32383,2.346816 -0.16974,0.204523 -0.3961,0.37186 -0.50302,0.37186 -0.18588,0 -3.89932,2.678027 -4.62492,3.33537 -0.19157,0.173542 -0.60832,0.451496 -0.92611,0.617674 -0.3178,0.166179 -1.20717,0.790575 -1.97639,1.387549 -0.76921,0.59697 -1.64037,1.21481 -1.93591,1.37297 -0.29553,0.15817 -0.71228,0.44128 -0.92611,0.62914 -0.34539,0.30345 -1.46056,1.11178 -3.63956,2.63815 -0.38313,0.26837 -1.2713,0.89699 -1.9737,1.39693 -0.7024,0.49993 -1.61839,1.14853 -2.03552,1.44133 -0.41714,0.2928 -1.55923,1.13211 -2.53799,1.86514 -0.97876,0.73303 -1.96972,1.39314 -2.20212,1.4669 -0.23241,0.0738 -0.42256,0.21594 -0.42256,0.31595 0,0.10002 -0.54113,0.53706 -1.20253,0.9712 -2.016302,1.32353 -2.378696,1.57156 -2.860958,1.95812 -0.502378,0.40268 -2.548613,1.87106 -3.787154,2.71768 -0.42271,0.28894 -1.174881,0.83882 -1.671495,1.22195 -1.777309,1.37116 -4.585756,3.3669 -4.737986,3.3669 -0.08528,0 -0.438165,0.19921 -0.784196,0.44269 -0.670683,0.47192 -2.027699,0.76177 -2.602843,0.55595 z"
        />
    <path
       id="path27"
       d="m 83.01134,161.43964 c -0.191564,-0.074 -1.338268,-0.87557 -2.548232,-1.78122 -1.209964,-0.90564 -2.497798,-1.83271 -2.861855,-2.06015 -0.364056,-0.22744 -0.882769,-0.61927 -1.152694,-0.87075 -0.269925,-0.25147 -0.571924,-0.45722 -0.67111,-0.45722 -0.09918,0 -0.523907,-0.28735 -0.943826,-0.63855 -0.419922,-0.3512 -0.935326,-0.74304 -1.145341,-0.87075 -0.210015,-0.12771 -0.862733,-0.57179 -1.450483,-0.98685 -0.587751,-0.41505 -1.523721,-1.06531 -2.079937,-1.44502 -0.556215,-0.37971 -1.143703,-0.84991 -1.30553,-1.0449 -0.161825,-0.19499 -0.432242,-0.35452 -0.600928,-0.35452 -0.168686,0 -0.443239,-0.19342 -0.610118,-0.42982 -0.166878,-0.2364 -0.616885,-0.59228 -1.000014,-0.79084 -0.383129,-0.19856 -1.010068,-0.63271 -1.393197,-0.96477 -0.38313,-0.33207 -0.879456,-0.66242 -1.102948,-0.73411 -0.223492,-0.0717 -0.40635,-0.22511 -0.40635,-0.34094 0,-0.11582 -0.332809,-0.38269 -0.739576,-0.59304 -0.406767,-0.21034 -1.396423,-0.89221 -2.199239,-1.51526 -0.802813,-0.62304 -1.543862,-1.13281 -1.646771,-1.13281 -0.102908,0 -0.519548,-0.28734 -0.925863,-0.63855 -0.406314,-0.3512 -1.273173,-1.00426 -1.92635,-1.45124 -0.653178,-0.44699 -1.538004,-1.07393 -1.966283,-1.3932 -0.428278,-0.31928 -1.31639,-0.94621 -1.973584,-1.3932 -0.657197,-0.44698 -1.388368,-0.98765 -1.624828,-1.20147 -0.236461,-0.21382 -0.671728,-0.51818 -0.967262,-0.67635 -0.295537,-0.15816 -1.165486,-0.76915 -1.933224,-1.35775 -0.767738,-0.58859 -1.709356,-1.26722 -2.092485,-1.50805 -0.383129,-0.24083 -0.780158,-0.57816 -0.882286,-0.74962 -0.102129,-0.17146 -0.300882,-0.31175 -0.441676,-0.31175 -0.140795,0 -0.713903,-0.33959 -1.273573,-0.75465 -1.638073,-1.2148 -2.552296,-1.87714 -3.445427,-2.49614 -0.460667,-0.31928 -1.350055,-0.97234 -1.976418,-1.45125 -0.626362,-0.47891 -1.240479,-0.87075 -1.364704,-0.87075 -0.124226,0 -0.362401,-0.18742 -0.52928,-0.41649 -0.166879,-0.22907 -0.629831,-0.6209 -1.028782,-0.87075 -1.713483,-1.07306 -2.763017,-1.81457 -2.837097,-2.00446 -0.04371,-0.11204 -0.461667,-0.41364 -0.928798,-0.67022 -0.467131,-0.25658 -1.267288,-0.77996 -1.778127,-1.16307 -0.510839,-0.38311 -1.343869,-0.98018 -1.851178,-1.32683 -0.507308,-0.34664 -1.09307,-0.787 -1.301692,-0.97856 -0.466816,-0.42865 -3.397768,-2.45899 -4.706794,-3.26051 -2.271082,-1.39058 -2.44382,-4.74078 -0.354218,-6.86993 0.530135,-0.54017 1.184519,-1.34312 1.454187,-1.78435 0.982614,-1.60772 1.777262,-2.71378 1.949714,-2.71378 0.09707,0 0.379686,-0.37733 0.628046,-0.83851 1.173127,-2.17836 3.976971,-3.31254 5.466537,-2.21126 0.368659,0.27257 0.760938,0.49557 0.871731,0.49557 0.110793,0 0.92482,0.55411 1.808949,1.23135 0.884129,0.67724 1.947099,1.4312 2.362156,1.67546 0.415056,0.24426 0.754648,0.52395 0.754648,0.62153 0,0.0976 0.391837,0.39271 0.870748,0.65585 0.854566,0.46955 2.139075,1.34021 2.861611,1.93964 0.201007,0.16676 0.697333,0.49924 1.102948,0.73884 0.405616,0.23961 0.737482,0.50768 0.737482,0.59572 0,0.088 0.444082,0.43564 0.986848,0.77244 0.542767,0.33681 1.404808,0.92491 1.915647,1.3069 1.364613,1.02042 2.416714,1.75672 3.657143,2.55938 0.606621,0.39253 1.102948,0.79245 1.102948,0.88871 0,0.0963 0.251702,0.2897 0.559336,0.42986 0.548901,0.2501 2.469718,1.60523 3.155857,2.22645 0.191564,0.17344 0.609523,0.44877 0.928798,0.61184 0.319274,0.16307 0.737233,0.43951 0.928798,0.6143 0.31861,0.29072 1.717362,1.31342 3.666696,2.6809 0.420309,0.29485 1.124858,0.79732 1.565661,1.11659 0.440805,0.31928 1.337785,0.94621 1.993289,1.3932 0.655506,0.44698 1.466059,1.04711 1.801232,1.33361 0.797002,0.68126 2.060233,1.56729 2.931399,2.05608 0.383129,0.21496 0.975965,0.61124 1.317412,0.88062 0.341447,0.26938 1.419503,1.06447 2.395682,1.76688 0.976178,0.7024 2.179532,1.59056 2.674119,1.97369 0.494587,0.38313 1.2451,0.93301 1.66781,1.22196 0.422708,0.28894 1.343254,0.93586 2.045658,1.4376 0.702403,0.50173 1.590566,1.12867 1.973696,1.39319 1.516456,1.04701 3.284511,2.31918 3.924077,2.82349 0.500051,0.3943 0.977999,0.53166 1.857596,0.53384 1.233421,0.003 1.799315,-0.30959 5.015606,-2.77097 0.574694,-0.43981 1.410612,-0.99935 1.857596,-1.24342 0.446985,-0.24408 1.01175,-0.66388 1.255037,-0.93288 0.243284,-0.26901 0.577684,-0.48911 0.74311,-0.48911 0.165424,0 0.384332,-0.13591 0.486461,-0.30203 0.102128,-0.16611 1.058504,-0.92366 2.125283,-1.68344 1.066775,-0.75978 2.228159,-1.5904 2.580851,-1.84582 0.352693,-0.25542 1.247625,-0.88236 1.988735,-1.3932 1.57488,-1.08554 2.42946,-1.69698 3.7076,-2.65274 0.51084,-0.382 1.37288,-0.9701 1.91564,-1.30691 0.54277,-0.3368 0.98685,-0.69016 0.98685,-0.78523 0,-0.0951 0.25268,-0.288 0.56151,-0.42871 0.30882,-0.14071 1.38985,-0.88891 2.40228,-1.66266 1.01243,-0.77376 1.96139,-1.40683 2.10879,-1.40683 0.14741,0 0.26801,-0.0942 0.26801,-0.20927 0,-0.11509 0.34864,-0.41496 0.77475,-0.66637 0.42611,-0.25141 0.97468,-0.62063 1.21905,-0.82048 1.14014,-0.93245 2.6731,-2.01908 2.84842,-2.01908 0.10681,0 0.39325,-0.2201 0.63653,-0.48911 0.24329,-0.269 0.80806,-0.67584 1.25504,-0.90409 0.44698,-0.22824 1.01175,-0.63508 1.25504,-0.90408 0.24328,-0.26901 0.57008,-0.48911 0.72621,-0.48911 0.15614,0 0.41933,-0.16321 0.58488,-0.36268 0.32212,-0.38814 2.43236,-1.87803 3.3686,-2.37834 0.31177,-0.1666 0.56686,-0.39902 0.56686,-0.51648 0,-0.11746 0.31902,-0.37854 0.70894,-0.58018 0.38993,-0.20164 0.88625,-0.52267 1.10295,-0.7134 0.34885,-0.30704 1.01624,-0.79174 3.6448,-2.64711 0.38313,-0.27043 1.25566,-0.90351 1.93896,-1.40684 0.6833,-0.50334 1.3886,-0.91515 1.56735,-0.91515 0.17874,0 0.32498,-0.10297 0.32498,-0.22882 0,-0.22508 0.36039,-0.49273 3.13469,-2.32809 2.40196,-1.58902 4.11878,-1.1687 6.15329,1.50651 0.44699,0.58774 1.15229,1.49237 1.56735,2.01028 0.41506,0.51791 0.75465,1.021 0.75465,1.11797 0,0.097 0.2351,0.44546 0.52245,0.77441 1.32794,1.52017 1.90445,2.79111 1.99528,4.39866 0.14649,2.59252 -0.0191,3.02328 -1.69596,4.41043 -0.81493,0.67414 -1.82954,1.46696 -2.25468,1.76182 -0.42514,0.29485 -1.34768,0.9466 -2.05009,1.44834 -0.7024,0.50173 -1.59056,1.12867 -1.97369,1.3932 -0.38313,0.26452 -1.27129,0.89146 -1.9737,1.39319 -0.7024,0.50174 -1.62724,1.14866 -2.0552,1.4376 -0.42795,0.28895 -0.95548,0.68209 -1.17229,0.87366 -0.2168,0.19156 -1.1677,0.87075 -2.1131,1.50929 -0.9454,0.63855 -1.88291,1.31992 -2.08335,1.51415 -0.20045,0.19424 -1.11777,0.85396 -2.03849,1.46605 -0.92072,0.6121 -1.73848,1.21718 -1.81725,1.34462 -0.0788,0.12745 -0.36816,0.332 -0.6431,0.45457 -0.27494,0.12257 -0.91785,0.53781 -1.42869,0.92276 -0.51084,0.38495 -1.34676,0.97782 -1.8576,1.31749 -0.51084,0.33966 -1.15998,0.82068 -1.44254,1.06891 -0.28256,0.24823 -0.71407,0.56741 -0.95891,0.70929 -0.24485,0.14187 -1.00631,0.6854 -1.69216,1.20783 -0.68584,0.52244 -1.5082,1.09714 -1.82748,1.2771 -0.31927,0.17997 -0.91459,0.58844 -1.32292,0.90771 -1.10816,0.86648 -3.79222,2.83322 -4.99496,3.66005 -0.42031,0.28895 -1.3389,0.93587 -2.0413,1.4376 -0.70241,0.50174 -1.59057,1.13351 -1.9737,1.40394 -0.38313,0.27043 -1.27129,0.9022 -1.97369,1.40394 -0.70241,0.50173 -1.61839,1.14865 -2.03553,1.4376 -0.41713,0.28894 -1.56063,1.12617 -2.5411,1.8605 -0.98047,0.73433 -1.851675,1.33515 -1.936012,1.33515 -0.08434,0 -0.424972,0.2351 -0.756973,0.52245 -0.331999,0.28734 -1.143474,0.88816 -1.803278,1.33514 -0.659802,0.44699 -1.527033,1.07393 -1.92718,1.3932 -0.400145,0.31928 -0.892398,0.68499 -1.093894,0.8127 -1.546626,0.98026 -2.952926,1.98669 -3.211654,2.29843 -0.169738,0.20453 -0.40977,0.37186 -0.5334,0.37186 -0.123632,0 -0.768706,0.46469 -1.433498,1.03264 -0.664792,0.56795 -1.498054,1.14264 -1.851696,1.2771 -0.671902,0.25545 -3.493584,0.30589 -4.095745,0.0732 z"
        />
    <path
       id="path29"
       d="m 24.742595,50.683068 c -0.912533,-0.173095 -2.057566,-1.076142 -2.815601,-2.220566 l -0.704796,-1.064049 0.07008,-5.413511 0.07008,-5.413512 0.696599,-0.975975 c 0.530627,-0.743439 1.042954,-1.116875 2.150288,-1.567347 l 1.453691,-0.591372 59.498692,0.0085 59.498692,0.0085 1.48547,0.746127 c 2.32388,1.167253 2.3459,1.241804 2.34546,7.940691 -4.6e-4,6.354948 -0.0611,6.617179 -1.82202,7.874236 l -1.00968,0.72077 -60.1749,0.02752 C 52.388456,50.77822 25.05453,50.74219 24.742594,50.68302 Z"
       />
    <path
       id="path31"
       d="m 23.902667,26.728974 c -0.518476,-0.235496 -1.30215,-0.881773 -1.741496,-1.436171 l -0.798812,-1.007997 -0.07016,-5.435396 -0.07016,-5.435396 0.75142,-1.239838 c 0.469828,-0.775212 1.018217,-1.352535 1.463359,-1.540567 C 24.01353,10.390001 35.758653,10.33288 85.271879,10.33288 H 146.395 l 0.99026,0.990419 0.99025,0.99042 v 6.254755 6.254755 l -0.88662,0.907864 c -0.48765,0.499324 -1.28345,1.026751 -1.76844,1.172059 -0.64939,0.194562 -16.69496,0.262852 -60.878453,0.259096 -57.803077,-0.0049 -60.031111,-0.02075 -60.93933,-0.433274 z"
       />
  </g>
</svg>
